<svg xmlns="http://www.w3.org/2000/svg" xmlns:xlink="http://www.w3.org/1999/xlink" viewBox="0 0 468.42 495.29">
  <defs>
    <style>
      .cls-1 {
        fill: none;
      }

      .cls-2 {
        isolation: isolate;
      }

      .cls-3 {
        clip-path: url(#clip-path);
      }

      .cls-4 {
        fill: #6e6f71;
      }

      .cls-10, .cls-11, .cls-12, .cls-13, .cls-14, .cls-15, .cls-16, .cls-17, .cls-18, .cls-19, .cls-20, .cls-21, .cls-22, .cls-23, .cls-24, .cls-25, .cls-26, .cls-27, .cls-28, .cls-29, .cls-30, .cls-31, .cls-32, .cls-33, .cls-34, .cls-35, .cls-36, .cls-37, .cls-38, .cls-39, .cls-4, .cls-40, .cls-41, .cls-42, .cls-43, .cls-44, .cls-45, .cls-46, .cls-47, .cls-48, .cls-49, .cls-5, .cls-50, .cls-51, .cls-52, .cls-53, .cls-6, .cls-7, .cls-8, .cls-9 {
        fill-rule: evenodd;
      }

      .cls-5 {
        fill: #606164;
      }

      .cls-6 {
        fill: #5c5e5f;
      }

      .cls-7 {
        fill: #5b5c5e;
      }

      .cls-8 {
        fill: #626466;
      }

      .cls-9 {
        fill: #6e6e6f;
      }

      .cls-10 {
        fill: #666769;
      }

      .cls-11 {
        fill: #7c7c7d;
      }

      .cls-12 {
        fill: #646566;
      }

      .cls-13 {
        fill: #68696a;
      }

      .cls-14 {
        fill: #5d5f60;
      }

      .cls-15 {
        fill: #5c5d5f;
      }

      .cls-16 {
        fill: #69696b;
      }

      .cls-17 {
        fill: #626465;
      }

      .cls-18 {
        fill: #6a6b6d;
      }

      .cls-19 {
        fill: #5b5c5f;
      }

      .cls-20 {
        fill: #5e5f61;
      }

      .cls-21 {
        fill: #696a6b;
      }

      .cls-22 {
        fill: #616264;
      }

      .cls-23 {
        fill: #656668;
      }

      .cls-24 {
        fill: #5f6061;
      }

      .cls-25 {
        fill: #5f6062;
      }

      .cls-26 {
        fill: #5d5f61;
      }

      .cls-27 {
        fill: #616364;
      }

      .cls-28 {
        fill: #5f6163;
      }

      .cls-29 {
        fill: #646466;
      }

      .cls-30 {
        fill: #6b6c6e;
      }

      .cls-31 {
        fill: #767677;
      }

      .cls-32 {
        fill: #656667;
      }

      .cls-33 {
        fill: #717273;
      }

      .cls-34 {
        fill: #6d6e6e;
      }

      .cls-35 {
        fill: #6f7071;
      }

      .cls-36 {
        fill: #737374;
      }

      .cls-37 {
        fill: #676869;
      }

      .cls-38 {
        fill: #707172;
      }

      .cls-39 {
        fill: #6a6b6c;
      }

      .cls-40 {
        fill: #6b6b6d;
      }

      .cls-41 {
        fill: #737475;
      }

      .cls-42 {
        fill: #757677;
      }

      .cls-43 {
        fill: #5c5e60;
      }

      .cls-44 {
        fill: #747576;
      }

      .cls-45 {
        fill: #6d6e6f;
      }

      .cls-46 {
        fill: #777778;
      }

      .cls-47 {
        fill: #6e6e70;
      }

      .cls-48 {
        fill: #616365;
      }

      .cls-49 {
        fill: #797a7b;
      }

      .cls-50 {
        fill: #727373;
      }

      .cls-51 {
        fill: #727374;
      }

      .cls-52 {
        fill: #767778;
      }

      .cls-53 {
        fill: #7e7e7f;
      }

      .cls-54, .cls-55, .cls-57, .cls-59, .cls-62, .cls-66, .cls-68, .cls-75 {
        mix-blend-mode: multiply;
      }

      .cls-54 {
        fill: url(#linear-gradient);
      }

      .cls-55 {
        fill: url(#radial-gradient);
      }

      .cls-56, .cls-67 {
        stroke: #4c4c4c;
      }

      .cls-56 {
        fill: url(#linear-gradient-2);
      }

      .cls-57 {
        fill: url(#radial-gradient-2);
      }

      .cls-58 {
        fill: url(#linear-gradient-3);
      }

      .cls-59 {
        fill: url(#linear-gradient-4);
      }

      .cls-60 {
        fill: #a79a00;
      }

      .cls-61 {
        fill: url(#linear-gradient-5);
      }

      .cls-62 {
        fill: #840400;
      }

      .cls-63 {
        fill: url(#linear-gradient-6);
      }

      .cls-64, .cls-70, .cls-77, .cls-79, .cls-80 {
        mix-blend-mode: screen;
      }

      .cls-64 {
        fill: url(#linear-gradient-7);
      }

      .cls-65 {
        fill: #e8d1d1;
      }

      .cls-66 {
        fill: url(#radial-gradient-3);
      }

      .cls-67 {
        fill: url(#linear-gradient-8);
      }

      .cls-68 {
        fill: url(#radial-gradient-4);
      }

      .cls-69 {
        fill: #0f0f0f;
      }

      .cls-70 {
        fill: url(#radial-gradient-5);
      }

      .cls-71 {
        fill: url(#linear-gradient-9);
      }

      .cls-72 {
        fill: #dbff65;
      }

      .cls-73 {
        fill: url(#linear-gradient-10);
      }

      .cls-74 {
        fill: url(#radial-gradient-6);
      }

      .cls-75 {
        fill: #cb9331;
      }

      .cls-76 {
        fill: url(#linear-gradient-11);
      }

      .cls-77 {
        fill: url(#linear-gradient-12);
      }

      .cls-78 {
        mix-blend-mode: color-dodge;
        fill: url(#radial-gradient-7);
      }

      .cls-79 {
        fill: url(#radial-gradient-8);
      }

      .cls-80 {
        fill: url(#radial-gradient-9);
      }
    </style>
    <clipPath id="clip-path" transform="translate(3.15 3.55)">
      <rect class="cls-1" width="463.64" height="463.58"/>
    </clipPath>
    <linearGradient id="linear-gradient" x1="1.57" y1="235.35" x2="468.38" y2="235.35" gradientUnits="userSpaceOnUse">
      <stop offset="0" stop-color="#4b4b4b"/>
      <stop offset="0.13" stop-color="#838383"/>
      <stop offset="0.13" stop-color="#848484"/>
      <stop offset="0.22" stop-color="#888"/>
      <stop offset="0.24" stop-color="#828282"/>
      <stop offset="0.29" stop-color="#6e6e6e"/>
      <stop offset="0.34" stop-color="#606060"/>
      <stop offset="0.41" stop-color="#575757"/>
      <stop offset="0.53" stop-color="#555"/>
      <stop offset="0.59" stop-color="#616161"/>
      <stop offset="0.69" stop-color="#818181"/>
      <stop offset="0.72" stop-color="#888"/>
      <stop offset="0.82" stop-color="#888"/>
      <stop offset="0.84" stop-color="#888"/>
      <stop offset="1" stop-color="#565656"/>
    </linearGradient>
    <radialGradient id="radial-gradient" cx="171.8" cy="2623.85" r="26.21" gradientTransform="translate(-40.35 122.97) scale(1.36 0.11)" gradientUnits="userSpaceOnUse">
      <stop offset="0"/>
      <stop offset="1" stop-color="#fff"/>
    </radialGradient>
    <linearGradient id="linear-gradient-2" x1="199.95" y1="989.61" x2="192.41" y2="266.34" gradientUnits="userSpaceOnUse">
      <stop offset="0" stop-color="#fff"/>
      <stop offset="1"/>
    </linearGradient>
    <radialGradient id="radial-gradient-2" cx="177.3" cy="2023.43" r="26.21" gradientTransform="translate(-23.23 -61.38) scale(1.2 0.23)" xlink:href="#radial-gradient"/>
    <linearGradient id="linear-gradient-3" x1="193.57" y1="370.05" x2="194.66" y2="352.22" gradientUnits="userSpaceOnUse">
      <stop offset="0" stop-color="#890000"/>
      <stop offset="0.57" stop-color="#390000"/>
      <stop offset="1" stop-color="#450000"/>
    </linearGradient>
    <linearGradient id="linear-gradient-4" x1="193.69" y1="368.4" x2="193.69" y2="357.17" gradientUnits="userSpaceOnUse">
      <stop offset="0" stop-color="#cbcbcb"/>
      <stop offset="0.1" stop-color="#c8c8c8"/>
      <stop offset="0.18" stop-color="#bebebe"/>
      <stop offset="0.25" stop-color="#aeaeae"/>
      <stop offset="0.32" stop-color="#979797"/>
      <stop offset="0.38" stop-color="#797979"/>
      <stop offset="0.45" stop-color="#545454"/>
      <stop offset="0.5" stop-color="#2a2a2a"/>
      <stop offset="0.55"/>
    </linearGradient>
    <linearGradient id="linear-gradient-5" x1="193.69" y1="410.66" x2="193.69" y2="368.07" xlink:href="#linear-gradient-3"/>
    <linearGradient id="linear-gradient-6" x1="186.03" y1="341.19" x2="193.67" y2="407.8" gradientUnits="userSpaceOnUse">
      <stop offset="0" stop-color="#9b1a17"/>
      <stop offset="0.57" stop-color="#621315"/>
      <stop offset="0.94" stop-color="#2f0000"/>
    </linearGradient>
    <linearGradient id="linear-gradient-7" x1="192.6" y1="593.55" x2="190.14" y2="357.69" xlink:href="#linear-gradient-2"/>
    <radialGradient id="radial-gradient-3" cx="229.56" cy="2623.85" r="26.21" gradientTransform="translate(-43.51 119.42) scale(1.36 0.11)" xlink:href="#radial-gradient"/>
    <linearGradient id="linear-gradient-8" x1="278.57" y1="989.61" x2="271.04" y2="266.34" xlink:href="#linear-gradient-2"/>
    <radialGradient id="radial-gradient-4" cx="242.74" cy="2023.43" r="26.21" gradientTransform="translate(-23.23 -61.38) scale(1.2 0.23)" xlink:href="#radial-gradient"/>
    <radialGradient id="radial-gradient-5" cx="271.95" cy="393.3" r="64.34" gradientUnits="userSpaceOnUse">
      <stop offset="0" stop-color="#bb2800"/>
      <stop offset="0.06" stop-color="#a92400"/>
      <stop offset="0.23" stop-color="#761900"/>
      <stop offset="0.4" stop-color="#4b1000"/>
      <stop offset="0.57" stop-color="#2b0900"/>
      <stop offset="0.73" stop-color="#130400"/>
      <stop offset="0.87" stop-color="#050100"/>
      <stop offset="1"/>
    </radialGradient>
    <linearGradient id="linear-gradient-9" x1="269.04" y1="165.99" x2="270.13" y2="148.15" gradientTransform="matrix(1, 0, 0, -1, 3.15, 568.49)" gradientUnits="userSpaceOnUse">
      <stop offset="0" stop-color="#ff5619"/>
      <stop offset="0.57" stop-color="#e83200"/>
      <stop offset="1" stop-color="#ff3d0a"/>
    </linearGradient>
    <linearGradient id="linear-gradient-10" x1="269.16" y1="206.6" x2="269.16" y2="164.02" xlink:href="#linear-gradient-9"/>
    <radialGradient id="radial-gradient-6" cx="272.03" cy="403.49" r="38.47" gradientUnits="userSpaceOnUse">
      <stop offset="0" stop-color="#ff8d19"/>
      <stop offset="0.82" stop-color="#e83200"/>
      <stop offset="1" stop-color="#ff3d0a"/>
    </radialGradient>
    <linearGradient id="linear-gradient-11" x1="269.16" y1="506.71" x2="269.16" y2="332.28" gradientUnits="userSpaceOnUse">
      <stop offset="0" stop-color="#ffb89a"/>
      <stop offset="0.57" stop-color="#ffa893"/>
      <stop offset="0.94" stop-color="#d41308"/>
    </linearGradient>
    <linearGradient id="linear-gradient-12" x1="269.08" y1="138.83" x2="269.08" y2="220" gradientTransform="matrix(1, 0, 0, -1, 0, 564.93)" xlink:href="#linear-gradient-2"/>
    <radialGradient id="radial-gradient-7" cx="265.95" cy="384.49" r="110.8" xlink:href="#radial-gradient-5"/>
    <radialGradient id="radial-gradient-8" cx="270.65" cy="387.23" r="38.2" gradientUnits="userSpaceOnUse">
      <stop offset="0" stop-color="#bb2800"/>
      <stop offset="0.22" stop-color="#861d00"/>
      <stop offset="0.49" stop-color="#4d1000"/>
      <stop offset="0.71" stop-color="#230700"/>
      <stop offset="0.89" stop-color="#090200"/>
      <stop offset="1"/>
    </radialGradient>
    <radialGradient id="radial-gradient-9" cx="264.6" cy="552.53" r="46.07" gradientTransform="translate(-27.17 90) scale(1.12 0.55)" gradientUnits="userSpaceOnUse">
      <stop offset="0" stop-color="#bb2800"/>
      <stop offset="0.02" stop-color="#b62700"/>
      <stop offset="0.21" stop-color="#7f1b00"/>
      <stop offset="0.39" stop-color="#521100"/>
      <stop offset="0.57" stop-color="#2e0a00"/>
      <stop offset="0.73" stop-color="#150400"/>
      <stop offset="0.88" stop-color="#050100"/>
      <stop offset="1"/>
    </radialGradient>
  </defs>
  <title>shutterstock_740634397 [Converted]</title>
  <g class="cls-2">
    <g id="Layer_6" data-name="Layer 6">
      <g class="cls-3">
        <path class="cls-4" d="M-2.91,465.12H465.15C309.67,465.38,152.58,465.38-2.91,465.12Z" transform="translate(3.15 3.55)"/>
        <path class="cls-5" d="M-2.91,465.12v-.61H465.15v.61Z" transform="translate(3.15 3.55)"/>
        <path class="cls-6" d="M-2.91,464.51v-.15H465.15v.15Z" transform="translate(3.15 3.55)"/>
        <path class="cls-7" d="M-2.91,464.36v-2.44H465.15v2.44Z" transform="translate(3.15 3.55)"/>
        <path class="cls-7" d="M-2.91,461.92v-.45H465.15v.45Z" transform="translate(3.15 3.55)"/>
        <path class="cls-8" d="M-2.91,461.47V461H465.15v.46Z" transform="translate(3.15 3.55)"/>
        <path class="cls-7" d="M-2.91,461v-.3H465.15v.3Z" transform="translate(3.15 3.55)"/>
        <path class="cls-9" d="M-2.91,460.71v-.61H465.15v.61Z" transform="translate(3.15 3.55)"/>
        <path class="cls-10" d="M-2.91,460.1v-.76H465.15v.76Z" transform="translate(3.15 3.55)"/>
        <path class="cls-7" d="M-2.91,459.34v-.15H465.15v.15Z" transform="translate(3.15 3.55)"/>
        <path class="cls-11" d="M-2.91,459.19v-.46H465.15v.46Z" transform="translate(3.15 3.55)"/>
        <path class="cls-12" d="M-2.91,458.73v-.3H465.15v.3Z" transform="translate(3.15 3.55)"/>
        <path class="cls-13" d="M-2.91,458.43v-.31H465.15v.31Z" transform="translate(3.15 3.55)"/>
        <path class="cls-14" d="M-2.91,458.12v-.45H465.15v.45Z" transform="translate(3.15 3.55)"/>
        <path class="cls-7" d="M-2.91,457.67v-.16H465.15v.16Z" transform="translate(3.15 3.55)"/>
        <path class="cls-7" d="M-2.91,457.51v-.61H465.15v.61Z" transform="translate(3.15 3.55)"/>
        <path class="cls-15" d="M-2.91,456.9v-.3H465.15v.3Z" transform="translate(3.15 3.55)"/>
        <path class="cls-14" d="M-2.91,456.6V456H465.15v.61Z" transform="translate(3.15 3.55)"/>
        <path class="cls-16" d="M-2.91,456v-.76H465.15V456Z" transform="translate(3.15 3.55)"/>
        <path class="cls-17" d="M-2.91,455.23v-.3H465.15v.3Z" transform="translate(3.15 3.55)"/>
        <path class="cls-18" d="M-2.91,454.93v-.16H465.15v.16Z" transform="translate(3.15 3.55)"/>
        <path class="cls-7" d="M-2.91,454.77v-.3H465.15v.3Z" transform="translate(3.15 3.55)"/>
        <path class="cls-4" d="M-2.91,454.47V454H465.15v.46Z" transform="translate(3.15 3.55)"/>
        <path class="cls-19" d="M-2.91,454v-.61H465.15V454Z" transform="translate(3.15 3.55)"/>
        <path class="cls-14" d="M-2.91,453.4v-.3H465.15v.3Z" transform="translate(3.15 3.55)"/>
        <path class="cls-9" d="M-2.91,453.1v-.76H465.15v.76Z" transform="translate(3.15 3.55)"/>
        <path class="cls-16" d="M-2.91,452.34v-.15H465.15v.15Z" transform="translate(3.15 3.55)"/>
        <path class="cls-10" d="M-2.91,452.19v-.46H465.15v.46Z" transform="translate(3.15 3.55)"/>
        <path class="cls-20" d="M-2.91,451.73v-.3H465.15v.3Z" transform="translate(3.15 3.55)"/>
        <path class="cls-21" d="M-2.91,451.43v-.16H465.15v.16Z" transform="translate(3.15 3.55)"/>
        <path class="cls-22" d="M-2.91,451.27v-.45H465.15v.45Z" transform="translate(3.15 3.55)"/>
        <path class="cls-21" d="M-2.91,450.82v-2.13H465.15v2.13Z" transform="translate(3.15 3.55)"/>
        <path class="cls-19" d="M-2.91,448.69v-.31H465.15v.31Z" transform="translate(3.15 3.55)"/>
        <path class="cls-14" d="M-2.91,448.38v-.61H465.15v.61Z" transform="translate(3.15 3.55)"/>
        <path class="cls-12" d="M-2.91,447.77v-.3H465.15v.3Z" transform="translate(3.15 3.55)"/>
        <path class="cls-23" d="M-2.91,447.47v-2.13H465.15v2.13Z" transform="translate(3.15 3.55)"/>
        <path class="cls-21" d="M-2.91,445.34v-.15H465.15v.15Z" transform="translate(3.15 3.55)"/>
        <path class="cls-15" d="M-2.91,445.19v-3.5H465.15v3.5Z" transform="translate(3.15 3.55)"/>
        <path class="cls-6" d="M-2.91,441.69v-.46H465.15v.46Z" transform="translate(3.15 3.55)"/>
        <path class="cls-6" d="M-2.91,441.23v-.31H465.15v.31Z" transform="translate(3.15 3.55)"/>
        <path class="cls-16" d="M-2.91,440.92v-.45H465.15v.45Z" transform="translate(3.15 3.55)"/>
        <path class="cls-6" d="M-2.91,440.47V439.4H465.15v1.07Z" transform="translate(3.15 3.55)"/>
        <path class="cls-17" d="M-2.91,439.4v-.15H465.15v.15Z" transform="translate(3.15 3.55)"/>
        <path class="cls-24" d="M-2.91,439.25v-.45H465.15v.45Z" transform="translate(3.15 3.55)"/>
        <path class="cls-5" d="M-2.91,438.8v-.16H465.15v.16Z" transform="translate(3.15 3.55)"/>
        <path class="cls-14" d="M-2.91,438.64v-.15H465.15v.15Z" transform="translate(3.15 3.55)"/>
        <path class="cls-24" d="M-2.91,438.49v-.15H465.15v.15Z" transform="translate(3.15 3.55)"/>
        <path class="cls-25" d="M-2.91,438.34V438H465.15v.31Z" transform="translate(3.15 3.55)"/>
        <path class="cls-10" d="M-2.91,438v-.3H465.15v.3Z" transform="translate(3.15 3.55)"/>
        <path class="cls-18" d="M-2.91,437.73v-.46H465.15v.46Z" transform="translate(3.15 3.55)"/>
        <path class="cls-19" d="M-2.91,437.27v-.15H465.15v.15Z" transform="translate(3.15 3.55)"/>
        <path class="cls-23" d="M-2.91,437.12v-2.59H465.15v2.59Z" transform="translate(3.15 3.55)"/>
        <path class="cls-15" d="M-2.91,434.53v-.3H465.15v.3Z" transform="translate(3.15 3.55)"/>
        <path class="cls-7" d="M-2.91,434.23v-3.5H465.15v3.5Z" transform="translate(3.15 3.55)"/>
        <path class="cls-19" d="M-2.91,430.73v-.16H465.15v.16Z" transform="translate(3.15 3.55)"/>
        <path class="cls-8" d="M-2.91,430.57v-.3H465.15v.3Z" transform="translate(3.15 3.55)"/>
        <path class="cls-26" d="M-2.91,430.27v-.15H465.15v.15Z" transform="translate(3.15 3.55)"/>
        <path class="cls-16" d="M-2.91,430.12v-2.74H465.15v2.74Z" transform="translate(3.15 3.55)"/>
        <path class="cls-16" d="M-2.91,427.38v-.15H465.15v.15Z" transform="translate(3.15 3.55)"/>
        <path class="cls-27" d="M-2.91,427.23v-.76H465.15v.76Z" transform="translate(3.15 3.55)"/>
        <path class="cls-7" d="M-2.91,426.47v-.61H465.15v.61Z" transform="translate(3.15 3.55)"/>
        <path class="cls-28" d="M-2.91,425.86v-.16H465.15v.16Z" transform="translate(3.15 3.55)"/>
        <path class="cls-26" d="M-2.91,425.7v-.91H465.15v.91Z" transform="translate(3.15 3.55)"/>
        <path class="cls-18" d="M-2.91,424.79v-.15H465.15v.15Z" transform="translate(3.15 3.55)"/>
        <path class="cls-17" d="M-2.91,424.64v-.45H465.15v.45Z" transform="translate(3.15 3.55)"/>
        <path class="cls-7" d="M-2.91,424.19V423H465.15v1.22Z" transform="translate(3.15 3.55)"/>
        <path class="cls-7" d="M-2.91,423v-.16H465.15V423Z" transform="translate(3.15 3.55)"/>
        <path class="cls-16" d="M-2.91,422.81v-.45H465.15v.45Z" transform="translate(3.15 3.55)"/>
        <path class="cls-6" d="M-2.91,422.36v-.16H465.15v.16Z" transform="translate(3.15 3.55)"/>
        <path class="cls-12" d="M-2.91,422.2v-1.82H465.15v1.82Z" transform="translate(3.15 3.55)"/>
        <path class="cls-14" d="M-2.91,420.38v-1.07H465.15v1.07Z" transform="translate(3.15 3.55)"/>
        <path class="cls-13" d="M-2.91,419.31v-.15H465.15v.15Z" transform="translate(3.15 3.55)"/>
        <path class="cls-29" d="M-2.91,419.16V418.1H465.15v1.06Z" transform="translate(3.15 3.55)"/>
        <path class="cls-15" d="M-2.91,418.1v-.16H465.15v.16Z" transform="translate(3.15 3.55)"/>
        <path class="cls-30" d="M-2.91,417.94v-1.37H465.15v1.37Z" transform="translate(3.15 3.55)"/>
        <path class="cls-27" d="M-2.91,416.57v-.76H465.15v.76Z" transform="translate(3.15 3.55)"/>
        <path class="cls-31" d="M-2.91,415.81v-.15H465.15v.15Z" transform="translate(3.15 3.55)"/>
        <path class="cls-7" d="M-2.91,415.66v-.61H465.15v.61Z" transform="translate(3.15 3.55)"/>
        <path class="cls-30" d="M-2.91,415.05v-.15H465.15v.15Z" transform="translate(3.15 3.55)"/>
        <path class="cls-24" d="M-2.91,414.9v-.76H465.15v.76Z" transform="translate(3.15 3.55)"/>
        <path class="cls-32" d="M-2.91,414.14v-.3H465.15v.3Z" transform="translate(3.15 3.55)"/>
        <path class="cls-9" d="M-2.91,413.84v-.46H465.15v.46Z" transform="translate(3.15 3.55)"/>
        <path class="cls-10" d="M-2.91,413.38v-.92H465.15v.92Z" transform="translate(3.15 3.55)"/>
        <path class="cls-5" d="M-2.91,412.46V412H465.15v.45Z" transform="translate(3.15 3.55)"/>
        <path class="cls-33" d="M-2.91,412v-.91H465.15V412Z" transform="translate(3.15 3.55)"/>
        <path class="cls-34" d="M-2.91,411.1V411H465.15v.15Z" transform="translate(3.15 3.55)"/>
        <path class="cls-26" d="M-2.91,411v-.77H465.15V411Z" transform="translate(3.15 3.55)"/>
        <path class="cls-9" d="M-2.91,410.18v-.46H465.15v.46Z" transform="translate(3.15 3.55)"/>
        <path class="cls-14" d="M-2.91,409.72v-.3H465.15v.3Z" transform="translate(3.15 3.55)"/>
        <path class="cls-15" d="M-2.91,409.42v-.15H465.15v.15Z" transform="translate(3.15 3.55)"/>
        <path class="cls-19" d="M-2.91,409.27v-2H465.15v2Z" transform="translate(3.15 3.55)"/>
        <path class="cls-7" d="M-2.91,407.29v-.45H465.15v.45Z" transform="translate(3.15 3.55)"/>
        <path class="cls-13" d="M-2.91,406.84v-1.22H465.15v1.22Z" transform="translate(3.15 3.55)"/>
        <path class="cls-21" d="M-2.91,405.62v-.16H465.15v.16Z" transform="translate(3.15 3.55)"/>
        <path class="cls-34" d="M-2.91,405.46v-.3H465.15v.3Z" transform="translate(3.15 3.55)"/>
        <path class="cls-12" d="M-2.91,405.16v-1.67H465.15v1.67Z" transform="translate(3.15 3.55)"/>
        <path class="cls-22" d="M-2.91,403.49v-.31H465.15v.31Z" transform="translate(3.15 3.55)"/>
        <path class="cls-14" d="M-2.91,403.18V397.1H465.15v6.08Z" transform="translate(3.15 3.55)"/>
        <path class="cls-13" d="M-2.91,397.1v-.46H465.15v.46Z" transform="translate(3.15 3.55)"/>
        <path class="cls-32" d="M-2.91,396.64v-1.22H465.15v1.22Z" transform="translate(3.15 3.55)"/>
        <path class="cls-29" d="M-2.91,395.42v-.3H465.15v.3Z" transform="translate(3.15 3.55)"/>
        <path class="cls-10" d="M-2.91,395.12v-.61H465.15v.61Z" transform="translate(3.15 3.55)"/>
        <path class="cls-22" d="M-2.91,394.51v-.61H465.15v.61Z" transform="translate(3.15 3.55)"/>
        <path class="cls-19" d="M-2.91,393.9v-.61H465.15v.61Z" transform="translate(3.15 3.55)"/>
        <path class="cls-25" d="M-2.91,393.29V393H465.15v.3Z" transform="translate(3.15 3.55)"/>
        <path class="cls-27" d="M-2.91,393v-.16H465.15V393Z" transform="translate(3.15 3.55)"/>
        <path class="cls-19" d="M-2.91,392.83v-.15H465.15v.15Z" transform="translate(3.15 3.55)"/>
        <path class="cls-29" d="M-2.91,392.68v-.15H465.15v.15Z" transform="translate(3.15 3.55)"/>
        <path class="cls-14" d="M-2.91,392.53v-.15H465.15v.15Z" transform="translate(3.15 3.55)"/>
        <path class="cls-9" d="M-2.91,392.38v-.92H465.15v.92Z" transform="translate(3.15 3.55)"/>
        <path class="cls-22" d="M-2.91,391.46v-.15H465.15v.15Z" transform="translate(3.15 3.55)"/>
        <path class="cls-6" d="M-2.91,391.31v-.15H465.15v.15Z" transform="translate(3.15 3.55)"/>
        <path class="cls-29" d="M-2.91,391.16v-.31H465.15v.31Z" transform="translate(3.15 3.55)"/>
        <path class="cls-26" d="M-2.91,390.85v-.45H465.15v.45Z" transform="translate(3.15 3.55)"/>
        <path class="cls-7" d="M-2.91,390.4v-.91H465.15v.91Z" transform="translate(3.15 3.55)"/>
        <path class="cls-5" d="M-2.91,389.49v-.16H465.15v.16Z" transform="translate(3.15 3.55)"/>
        <path class="cls-26" d="M-2.91,389.33v-.15H465.15v.15Z" transform="translate(3.15 3.55)"/>
        <path class="cls-7" d="M-2.91,389.18V389H465.15v.15Z" transform="translate(3.15 3.55)"/>
        <path class="cls-26" d="M-2.91,389v-3.81H465.15V389Z" transform="translate(3.15 3.55)"/>
        <path class="cls-29" d="M-2.91,385.22v-.3H465.15v.3Z" transform="translate(3.15 3.55)"/>
        <path class="cls-32" d="M-2.91,384.92V383.4H465.15v1.52Z" transform="translate(3.15 3.55)"/>
        <path class="cls-7" d="M-2.91,383.4v-.15H465.15v.15Z" transform="translate(3.15 3.55)"/>
        <path class="cls-30" d="M-2.91,383.25v-.31H465.15v.31Z" transform="translate(3.15 3.55)"/>
        <path class="cls-7" d="M-2.91,382.94v-.15H465.15v.15Z" transform="translate(3.15 3.55)"/>
        <path class="cls-25" d="M-2.91,382.79v-3H465.15v3Z" transform="translate(3.15 3.55)"/>
        <path class="cls-16" d="M-2.91,379.75v-.16H465.15v.16Z" transform="translate(3.15 3.55)"/>
        <path class="cls-25" d="M-2.91,379.59v-.15H465.15v.15Z" transform="translate(3.15 3.55)"/>
        <path class="cls-28" d="M-2.91,379.44v-.61H465.15v.61Z" transform="translate(3.15 3.55)"/>
        <path class="cls-10" d="M-2.91,378.83v-.15H465.15v.15Z" transform="translate(3.15 3.55)"/>
        <path class="cls-8" d="M-2.91,378.68v-.15H465.15v.15Z" transform="translate(3.15 3.55)"/>
        <path class="cls-29" d="M-2.91,378.53v-1.22H465.15v1.22Z" transform="translate(3.15 3.55)"/>
        <path class="cls-7" d="M-2.91,377.31v-.46H465.15v.46Z" transform="translate(3.15 3.55)"/>
        <path class="cls-23" d="M-2.91,376.85v-4.41H465.15v4.41Z" transform="translate(3.15 3.55)"/>
        <path class="cls-35" d="M-2.91,372.44V372H465.15v.46Z" transform="translate(3.15 3.55)"/>
        <path class="cls-4" d="M-2.91,372v-.76H465.15V372Z" transform="translate(3.15 3.55)"/>
        <path class="cls-36" d="M-2.91,371.22V370H465.15v1.21Z" transform="translate(3.15 3.55)"/>
        <path class="cls-15" d="M-2.91,370v-.31H465.15V370Z" transform="translate(3.15 3.55)"/>
        <path class="cls-34" d="M-2.91,369.7v-.15H465.15v.15Z" transform="translate(3.15 3.55)"/>
        <path class="cls-6" d="M-2.91,369.55v-.15H465.15v.15Z" transform="translate(3.15 3.55)"/>
        <path class="cls-15" d="M-2.91,369.4v-.61H465.15v.61Z" transform="translate(3.15 3.55)"/>
        <path class="cls-4" d="M-2.91,368.79v-.31H465.15v.31Z" transform="translate(3.15 3.55)"/>
        <path class="cls-7" d="M-2.91,368.48v-.3H465.15v.3Z" transform="translate(3.15 3.55)"/>
        <path class="cls-19" d="M-2.91,368.18v-.3H465.15v.3Z" transform="translate(3.15 3.55)"/>
        <path class="cls-29" d="M-2.91,367.88v-.16H465.15v.16Z" transform="translate(3.15 3.55)"/>
        <path class="cls-10" d="M-2.91,367.72v-.45H465.15v.45Z" transform="translate(3.15 3.55)"/>
        <path class="cls-22" d="M-2.91,367.27v-.46H465.15v.46Z" transform="translate(3.15 3.55)"/>
        <path class="cls-19" d="M-2.91,366.81v-.15H465.15v.15Z" transform="translate(3.15 3.55)"/>
        <path class="cls-27" d="M-2.91,366.66v-.31H465.15v.31Z" transform="translate(3.15 3.55)"/>
        <path class="cls-24" d="M-2.91,366.35v-.3H465.15v.3Z" transform="translate(3.15 3.55)"/>
        <path class="cls-25" d="M-2.91,366.05v-.31H465.15v.31Z" transform="translate(3.15 3.55)"/>
        <path class="cls-20" d="M-2.91,365.74v-.15H465.15v.15Z" transform="translate(3.15 3.55)"/>
        <path class="cls-15" d="M-2.91,365.59v-.15H465.15v.15Z" transform="translate(3.15 3.55)"/>
        <path class="cls-7" d="M-2.91,365.44V365H465.15v.46Z" transform="translate(3.15 3.55)"/>
        <path class="cls-21" d="M-2.91,365v-.15H465.15V365Z" transform="translate(3.15 3.55)"/>
        <path class="cls-37" d="M-2.91,364.83v-.3H465.15v.3Z" transform="translate(3.15 3.55)"/>
        <path class="cls-24" d="M-2.91,364.53v-.15H465.15v.15Z" transform="translate(3.15 3.55)"/>
        <path class="cls-38" d="M-2.91,364.38v-3.05H465.15v3.05Z" transform="translate(3.15 3.55)"/>
        <path class="cls-20" d="M-2.91,361.33V361H465.15v.3Z" transform="translate(3.15 3.55)"/>
        <path class="cls-21" d="M-2.91,361v-.46H465.15V361Z" transform="translate(3.15 3.55)"/>
        <path class="cls-21" d="M-2.91,360.57v-.91H465.15v.91Z" transform="translate(3.15 3.55)"/>
        <path class="cls-25" d="M-2.91,359.66v-.46H465.15v.46Z" transform="translate(3.15 3.55)"/>
        <path class="cls-26" d="M-2.91,359.2v-.3H465.15v.3Z" transform="translate(3.15 3.55)"/>
        <path class="cls-39" d="M-2.91,358.9v-.46H465.15v.46Z" transform="translate(3.15 3.55)"/>
        <path class="cls-30" d="M-2.91,358.44V358H465.15v.46Z" transform="translate(3.15 3.55)"/>
        <path class="cls-36" d="M-2.91,358v-1.06H465.15V358Z" transform="translate(3.15 3.55)"/>
        <path class="cls-32" d="M-2.91,356.92V356H465.15v.92Z" transform="translate(3.15 3.55)"/>
        <path class="cls-6" d="M-2.91,356v-.15H465.15V356Z" transform="translate(3.15 3.55)"/>
        <path class="cls-23" d="M-2.91,355.85v-.15H465.15v.15Z" transform="translate(3.15 3.55)"/>
        <path class="cls-17" d="M-2.91,355.7v-.46H465.15v.46Z" transform="translate(3.15 3.55)"/>
        <path class="cls-26" d="M-2.91,355.24v-.15H465.15v.15Z" transform="translate(3.15 3.55)"/>
        <path class="cls-38" d="M-2.91,355.09v-.61H465.15v.61Z" transform="translate(3.15 3.55)"/>
        <path class="cls-36" d="M-2.91,354.48v-.3H465.15v.3Z" transform="translate(3.15 3.55)"/>
        <path class="cls-14" d="M-2.91,354.18v-.46H465.15v.46Z" transform="translate(3.15 3.55)"/>
        <path class="cls-30" d="M-2.91,353.72v-.3H465.15v.3Z" transform="translate(3.15 3.55)"/>
        <path class="cls-29" d="M-2.91,353.42v-.15H465.15v.15Z" transform="translate(3.15 3.55)"/>
        <path class="cls-40" d="M-2.91,353.27V352.2H465.15v1.07Z" transform="translate(3.15 3.55)"/>
        <path class="cls-27" d="M-2.91,352.2v-.15H465.15v.15Z" transform="translate(3.15 3.55)"/>
        <path class="cls-14" d="M-2.91,352.05v-.15H465.15v.15Z" transform="translate(3.15 3.55)"/>
        <path class="cls-30" d="M-2.91,351.9V351H465.15v.92Z" transform="translate(3.15 3.55)"/>
        <path class="cls-27" d="M-2.91,351v-.91H465.15V351Z" transform="translate(3.15 3.55)"/>
        <path class="cls-7" d="M-2.91,350.07v-.3H465.15v.3Z" transform="translate(3.15 3.55)"/>
        <path class="cls-19" d="M-2.91,349.77V347H465.15v2.75Z" transform="translate(3.15 3.55)"/>
        <path class="cls-10" d="M-2.91,347v-.15H465.15V347Z" transform="translate(3.15 3.55)"/>
        <path class="cls-24" d="M-2.91,346.87v-.15H465.15v.15Z" transform="translate(3.15 3.55)"/>
        <path class="cls-41" d="M-2.91,346.72v-.45H465.15v.45Z" transform="translate(3.15 3.55)"/>
        <path class="cls-30" d="M-2.91,346.27v-.16H465.15v.16Z" transform="translate(3.15 3.55)"/>
        <path class="cls-6" d="M-2.91,346.11V346H465.15v.15Z" transform="translate(3.15 3.55)"/>
        <path class="cls-22" d="M-2.91,346v-.61H465.15V346Z" transform="translate(3.15 3.55)"/>
        <path class="cls-34" d="M-2.91,345.35v-.15H465.15v.15Z" transform="translate(3.15 3.55)"/>
        <path class="cls-22" d="M-2.91,345.2v-.15H465.15v.15Z" transform="translate(3.15 3.55)"/>
        <path class="cls-10" d="M-2.91,345.05v-.15H465.15v.15Z" transform="translate(3.15 3.55)"/>
        <path class="cls-19" d="M-2.91,344.9v-.46H465.15v.46Z" transform="translate(3.15 3.55)"/>
        <path class="cls-15" d="M-2.91,344.44v-.76H465.15v.76Z" transform="translate(3.15 3.55)"/>
        <path class="cls-14" d="M-2.91,343.68v-.3H465.15v.3Z" transform="translate(3.15 3.55)"/>
        <path class="cls-23" d="M-2.91,343.38v-.92H465.15v.92Z" transform="translate(3.15 3.55)"/>
        <path class="cls-6" d="M-2.91,342.46v-.15H465.15v.15Z" transform="translate(3.15 3.55)"/>
        <path class="cls-22" d="M-2.91,342.31v-.15H465.15v.15Z" transform="translate(3.15 3.55)"/>
        <path class="cls-6" d="M-2.91,342.16v-.61H465.15v.61Z" transform="translate(3.15 3.55)"/>
        <path class="cls-26" d="M-2.91,341.55v-.31H465.15v.31Z" transform="translate(3.15 3.55)"/>
        <path class="cls-14" d="M-2.91,341.24v-.15H465.15v.15Z" transform="translate(3.15 3.55)"/>
        <path class="cls-5" d="M-2.91,341.09v-.3H465.15v.3Z" transform="translate(3.15 3.55)"/>
        <path class="cls-16" d="M-2.91,340.79v-.31H465.15v.31Z" transform="translate(3.15 3.55)"/>
        <path class="cls-19" d="M-2.91,340.48v-.15H465.15v.15Z" transform="translate(3.15 3.55)"/>
        <path class="cls-15" d="M-2.91,340.33v-.91H465.15v.91Z" transform="translate(3.15 3.55)"/>
        <path class="cls-7" d="M-2.91,339.42v-.31H465.15v.31Z" transform="translate(3.15 3.55)"/>
        <path class="cls-25" d="M-2.91,339.11V339H465.15v.15Z" transform="translate(3.15 3.55)"/>
        <path class="cls-41" d="M-2.91,339v-.3H465.15v.3Z" transform="translate(3.15 3.55)"/>
        <path class="cls-27" d="M-2.91,338.66v-.46H465.15v.46Z" transform="translate(3.15 3.55)"/>
        <path class="cls-21" d="M-2.91,338.2v-.46H465.15v.46Z" transform="translate(3.15 3.55)"/>
        <path class="cls-23" d="M-2.91,337.74v-.3H465.15v.3Z" transform="translate(3.15 3.55)"/>
        <path class="cls-24" d="M-2.91,337.44v-.92H465.15v.92Z" transform="translate(3.15 3.55)"/>
        <path class="cls-18" d="M-2.91,336.52v-.45H465.15v.45Z" transform="translate(3.15 3.55)"/>
        <path class="cls-19" d="M-2.91,336.07v-.46H465.15v.46Z" transform="translate(3.15 3.55)"/>
        <path class="cls-14" d="M-2.91,335.61v-.3H465.15v.3Z" transform="translate(3.15 3.55)"/>
        <path class="cls-15" d="M-2.91,335.31v-.15H465.15v.15Z" transform="translate(3.15 3.55)"/>
        <path class="cls-15" d="M-2.91,335.16V335H465.15v.16Z" transform="translate(3.15 3.55)"/>
        <path class="cls-26" d="M-2.91,335v-.3H465.15v.3Z" transform="translate(3.15 3.55)"/>
        <path class="cls-12" d="M-2.91,334.7v-.15H465.15v.15Z" transform="translate(3.15 3.55)"/>
        <path class="cls-7" d="M-2.91,334.55v-.16H465.15v.16Z" transform="translate(3.15 3.55)"/>
        <path class="cls-7" d="M-2.91,334.39v-.76H465.15v.76Z" transform="translate(3.15 3.55)"/>
        <path class="cls-6" d="M-2.91,333.63v-.15H465.15v.15Z" transform="translate(3.15 3.55)"/>
        <path class="cls-21" d="M-2.91,333.48v-.15H465.15v.15Z" transform="translate(3.15 3.55)"/>
        <path class="cls-6" d="M-2.91,333.33v-.15H465.15v.15Z" transform="translate(3.15 3.55)"/>
        <path class="cls-14" d="M-2.91,333.18V333H465.15v.16Z" transform="translate(3.15 3.55)"/>
        <path class="cls-7" d="M-2.91,333v-.15H465.15V333Z" transform="translate(3.15 3.55)"/>
        <path class="cls-13" d="M-2.91,332.87v-.3H465.15v.3Z" transform="translate(3.15 3.55)"/>
        <path class="cls-22" d="M-2.91,332.57v-.15H465.15v.15Z" transform="translate(3.15 3.55)"/>
        <path class="cls-16" d="M-2.91,332.42v-.16H465.15v.16Z" transform="translate(3.15 3.55)"/>
        <path class="cls-40" d="M-2.91,332.26V332H465.15v.3Z" transform="translate(3.15 3.55)"/>
        <path class="cls-14" d="M-2.91,332v-.31H465.15V332Z" transform="translate(3.15 3.55)"/>
        <path class="cls-13" d="M-2.91,331.65v-.15H465.15v.15Z" transform="translate(3.15 3.55)"/>
        <path class="cls-20" d="M-2.91,331.5v-.3H465.15v.3Z" transform="translate(3.15 3.55)"/>
        <path class="cls-22" d="M-2.91,331.2v-.15H465.15v.15Z" transform="translate(3.15 3.55)"/>
        <path class="cls-28" d="M-2.91,331.05v-.16H465.15v.16Z" transform="translate(3.15 3.55)"/>
        <path class="cls-15" d="M-2.91,330.89v-.45H465.15v.45Z" transform="translate(3.15 3.55)"/>
        <path class="cls-14" d="M-2.91,330.44V330H465.15v.46Z" transform="translate(3.15 3.55)"/>
        <path class="cls-7" d="M-2.91,330v-.46H465.15V330Z" transform="translate(3.15 3.55)"/>
        <path class="cls-23" d="M-2.91,329.52v-.3H465.15v.3Z" transform="translate(3.15 3.55)"/>
        <path class="cls-40" d="M-2.91,329.22v-.3H465.15v.3Z" transform="translate(3.15 3.55)"/>
        <path class="cls-15" d="M-2.91,328.92v-.31H465.15v.31Z" transform="translate(3.15 3.55)"/>
        <path class="cls-34" d="M-2.91,328.61v-.76H465.15v.76Z" transform="translate(3.15 3.55)"/>
        <path class="cls-24" d="M-2.91,327.85v-.15H465.15v.15Z" transform="translate(3.15 3.55)"/>
        <path class="cls-24" d="M-2.91,327.7v-.46H465.15v.46Z" transform="translate(3.15 3.55)"/>
        <path class="cls-7" d="M-2.91,327.24v-.3H465.15v.3Z" transform="translate(3.15 3.55)"/>
        <path class="cls-28" d="M-2.91,326.94v-.46H465.15v.46Z" transform="translate(3.15 3.55)"/>
        <path class="cls-19" d="M-2.91,326.48v-.91H465.15v.91Z" transform="translate(3.15 3.55)"/>
        <path class="cls-14" d="M-2.91,325.57v-.46H465.15v.46Z" transform="translate(3.15 3.55)"/>
        <path class="cls-30" d="M-2.91,325.11v-.91H465.15v.91Z" transform="translate(3.15 3.55)"/>
        <path class="cls-25" d="M-2.91,324.2v-.46H465.15v.46Z" transform="translate(3.15 3.55)"/>
        <path class="cls-7" d="M-2.91,323.74v-.15H465.15v.15Z" transform="translate(3.15 3.55)"/>
        <path class="cls-37" d="M-2.91,323.59v-.15H465.15v.15Z" transform="translate(3.15 3.55)"/>
        <path class="cls-14" d="M-2.91,323.44v-.61H465.15v.61Z" transform="translate(3.15 3.55)"/>
        <path class="cls-29" d="M-2.91,322.83v-.15H465.15v.15Z" transform="translate(3.15 3.55)"/>
        <path class="cls-20" d="M-2.91,322.68v-.61H465.15v.61Z" transform="translate(3.15 3.55)"/>
        <path class="cls-22" d="M-2.91,322.07v-.16H465.15v.16Z" transform="translate(3.15 3.55)"/>
        <path class="cls-22" d="M-2.91,321.91v-1.06H465.15v1.06Z" transform="translate(3.15 3.55)"/>
        <path class="cls-14" d="M-2.91,320.85v-.3H465.15v.3Z" transform="translate(3.15 3.55)"/>
        <path class="cls-30" d="M-2.91,320.55v-.31H465.15v.31Z" transform="translate(3.15 3.55)"/>
        <path class="cls-42" d="M-2.91,320.24v-.46H465.15v.46Z" transform="translate(3.15 3.55)"/>
        <path class="cls-21" d="M-2.91,319.78v-.15H465.15v.15Z" transform="translate(3.15 3.55)"/>
        <path class="cls-19" d="M-2.91,319.63v-.3H465.15v.3Z" transform="translate(3.15 3.55)"/>
        <path class="cls-10" d="M-2.91,319.33v-.46H465.15v.46Z" transform="translate(3.15 3.55)"/>
        <path class="cls-26" d="M-2.91,318.87v-.15H465.15v.15Z" transform="translate(3.15 3.55)"/>
        <path class="cls-7" d="M-2.91,318.72v-.15H465.15v.15Z" transform="translate(3.15 3.55)"/>
        <path class="cls-15" d="M-2.91,318.57v-.46H465.15v.46Z" transform="translate(3.15 3.55)"/>
        <path class="cls-39" d="M-2.91,318.11V318H465.15v.15Z" transform="translate(3.15 3.55)"/>
        <path class="cls-8" d="M-2.91,318v-.15H465.15V318Z" transform="translate(3.15 3.55)"/>
        <path class="cls-23" d="M-2.91,317.81v-3.05H465.15v3.05Z" transform="translate(3.15 3.55)"/>
        <path class="cls-14" d="M-2.91,314.76v-.3H465.15v.3Z" transform="translate(3.15 3.55)"/>
        <path class="cls-29" d="M-2.91,314.46v-2.29H465.15v2.29Z" transform="translate(3.15 3.55)"/>
        <path class="cls-13" d="M-2.91,312.17V312H465.15v.15Z" transform="translate(3.15 3.55)"/>
        <path class="cls-10" d="M-2.91,312v-.3H465.15v.3Z" transform="translate(3.15 3.55)"/>
        <path class="cls-39" d="M-2.91,311.72v-.31H465.15v.31Z" transform="translate(3.15 3.55)"/>
        <path class="cls-17" d="M-2.91,311.41v-1.06H465.15v1.06Z" transform="translate(3.15 3.55)"/>
        <path class="cls-43" d="M-2.91,310.35v-.61H465.15v.61Z" transform="translate(3.15 3.55)"/>
        <path class="cls-26" d="M-2.91,309.74v-.46H465.15v.46Z" transform="translate(3.15 3.55)"/>
        <path class="cls-21" d="M-2.91,309.28v-.15H465.15v.15Z" transform="translate(3.15 3.55)"/>
        <path class="cls-27" d="M-2.91,309.13V309H465.15v.15Z" transform="translate(3.15 3.55)"/>
        <path class="cls-19" d="M-2.91,309v-.15H465.15V309Z" transform="translate(3.15 3.55)"/>
        <path class="cls-12" d="M-2.91,308.83v-.61H465.15v.61Z" transform="translate(3.15 3.55)"/>
        <path class="cls-13" d="M-2.91,308.22v-.15H465.15v.15Z" transform="translate(3.15 3.55)"/>
        <path class="cls-25" d="M-2.91,308.07v-.16H465.15v.16Z" transform="translate(3.15 3.55)"/>
        <path class="cls-10" d="M-2.91,307.91v-.15H465.15v.15Z" transform="translate(3.15 3.55)"/>
        <path class="cls-7" d="M-2.91,307.76v-.15H465.15v.15Z" transform="translate(3.15 3.55)"/>
        <path class="cls-34" d="M-2.91,307.61V307H465.15v.61Z" transform="translate(3.15 3.55)"/>
        <path class="cls-10" d="M-2.91,307v-.3H465.15v.3Z" transform="translate(3.15 3.55)"/>
        <path class="cls-6" d="M-2.91,306.7v-.15H465.15v.15Z" transform="translate(3.15 3.55)"/>
        <path class="cls-43" d="M-2.91,306.55v-.77H465.15v.77Z" transform="translate(3.15 3.55)"/>
        <path class="cls-25" d="M-2.91,305.78v-.61H465.15v.61Z" transform="translate(3.15 3.55)"/>
        <path class="cls-9" d="M-2.91,305.17V305H465.15v.15Z" transform="translate(3.15 3.55)"/>
        <path class="cls-19" d="M-2.91,305v-.15H465.15V305Z" transform="translate(3.15 3.55)"/>
        <path class="cls-16" d="M-2.91,304.87v-.61H465.15v.61Z" transform="translate(3.15 3.55)"/>
        <path class="cls-7" d="M-2.91,304.26v-.76H465.15v.76Z" transform="translate(3.15 3.55)"/>
        <path class="cls-20" d="M-2.91,303.5v-.45H465.15v.45Z" transform="translate(3.15 3.55)"/>
        <path class="cls-29" d="M-2.91,303.05v-.46H465.15v.46Z" transform="translate(3.15 3.55)"/>
        <path class="cls-22" d="M-2.91,302.59v-.31H465.15v.31Z" transform="translate(3.15 3.55)"/>
        <path class="cls-44" d="M-2.91,302.28v-1.37H465.15v1.37Z" transform="translate(3.15 3.55)"/>
        <path class="cls-34" d="M-2.91,300.91v-.3H465.15v.3Z" transform="translate(3.15 3.55)"/>
        <path class="cls-7" d="M-2.91,300.61v-.76H465.15v.76Z" transform="translate(3.15 3.55)"/>
        <path class="cls-34" d="M-2.91,299.85v-.15H465.15v.15Z" transform="translate(3.15 3.55)"/>
        <path class="cls-38" d="M-2.91,299.7v-.61H465.15v.61Z" transform="translate(3.15 3.55)"/>
        <path class="cls-27" d="M-2.91,299.09v-.46H465.15v.46Z" transform="translate(3.15 3.55)"/>
        <path class="cls-30" d="M-2.91,298.63V296.5H465.15v2.13Z" transform="translate(3.15 3.55)"/>
        <path class="cls-19" d="M-2.91,296.5v-.3H465.15v.3Z" transform="translate(3.15 3.55)"/>
        <path class="cls-24" d="M-2.91,296.2v-.92H465.15v.92Z" transform="translate(3.15 3.55)"/>
        <path class="cls-7" d="M-2.91,295.28v-.15H465.15v.15Z" transform="translate(3.15 3.55)"/>
        <path class="cls-4" d="M-2.91,295.13V295H465.15v.15Z" transform="translate(3.15 3.55)"/>
        <path class="cls-22" d="M-2.91,295v-.15H465.15V295Z" transform="translate(3.15 3.55)"/>
        <path class="cls-23" d="M-2.91,294.83v-.16H465.15v.16Z" transform="translate(3.15 3.55)"/>
        <path class="cls-25" d="M-2.91,294.67v-.15H465.15v.15Z" transform="translate(3.15 3.55)"/>
        <path class="cls-25" d="M-2.91,294.52v-.3H465.15v.3Z" transform="translate(3.15 3.55)"/>
        <path class="cls-25" d="M-2.91,294.22v-.61H465.15v.61Z" transform="translate(3.15 3.55)"/>
        <path class="cls-15" d="M-2.91,293.61v-.46H465.15v.46Z" transform="translate(3.15 3.55)"/>
        <path class="cls-7" d="M-2.91,293.15V293H465.15v.15Z" transform="translate(3.15 3.55)"/>
        <path class="cls-14" d="M-2.91,293v-.3H465.15v.3Z" transform="translate(3.15 3.55)"/>
        <path class="cls-7" d="M-2.91,292.7v-.31H465.15v.31Z" transform="translate(3.15 3.55)"/>
        <path class="cls-6" d="M-2.91,292.39v-.46H465.15v.46Z" transform="translate(3.15 3.55)"/>
        <path class="cls-30" d="M-2.91,291.93v-.61H465.15v.61Z" transform="translate(3.15 3.55)"/>
        <path class="cls-26" d="M-2.91,291.32V291H465.15v.3Z" transform="translate(3.15 3.55)"/>
        <path class="cls-22" d="M-2.91,291v-.91H465.15V291Z" transform="translate(3.15 3.55)"/>
        <path class="cls-22" d="M-2.91,290.11v-.31H465.15v.31Z" transform="translate(3.15 3.55)"/>
        <path class="cls-19" d="M-2.91,289.8v-.45H465.15v.45Z" transform="translate(3.15 3.55)"/>
        <path class="cls-6" d="M-2.91,289.35v-.46H465.15v.46Z" transform="translate(3.15 3.55)"/>
        <path class="cls-22" d="M-2.91,288.89v-.76H465.15v.76Z" transform="translate(3.15 3.55)"/>
        <path class="cls-19" d="M-2.91,288.13v-1.22H465.15v1.22Z" transform="translate(3.15 3.55)"/>
        <path class="cls-20" d="M-2.91,286.91v-.61H465.15v.61Z" transform="translate(3.15 3.55)"/>
        <path class="cls-13" d="M-2.91,286.3v-.15H465.15v.15Z" transform="translate(3.15 3.55)"/>
        <path class="cls-33" d="M-2.91,286.15V286H465.15v.15Z" transform="translate(3.15 3.55)"/>
        <path class="cls-13" d="M-2.91,286v-.15H465.15V286Z" transform="translate(3.15 3.55)"/>
        <path class="cls-30" d="M-2.91,285.85v-.46H465.15v.46Z" transform="translate(3.15 3.55)"/>
        <path class="cls-4" d="M-2.91,285.39v-.15H465.15v.15Z" transform="translate(3.15 3.55)"/>
        <path class="cls-14" d="M-2.91,285.24v-.15H465.15v.15Z" transform="translate(3.15 3.55)"/>
        <path class="cls-7" d="M-2.91,285.09v-.31H465.15v.31Z" transform="translate(3.15 3.55)"/>
        <path class="cls-8" d="M-2.91,284.78v-.15H465.15v.15Z" transform="translate(3.15 3.55)"/>
        <path class="cls-7" d="M-2.91,284.63v-.3H465.15v.3Z" transform="translate(3.15 3.55)"/>
        <path class="cls-29" d="M-2.91,284.33V284H465.15v.31Z" transform="translate(3.15 3.55)"/>
        <path class="cls-12" d="M-2.91,284v-.15H465.15V284Z" transform="translate(3.15 3.55)"/>
        <path class="cls-25" d="M-2.91,283.87v-.61H465.15v.61Z" transform="translate(3.15 3.55)"/>
        <path class="cls-45" d="M-2.91,283.26V283H465.15v.31Z" transform="translate(3.15 3.55)"/>
        <path class="cls-41" d="M-2.91,283v-.3H465.15v.3Z" transform="translate(3.15 3.55)"/>
        <path class="cls-25" d="M-2.91,282.65v-.15H465.15v.15Z" transform="translate(3.15 3.55)"/>
        <path class="cls-25" d="M-2.91,282.5v-.15H465.15v.15Z" transform="translate(3.15 3.55)"/>
        <path class="cls-25" d="M-2.91,282.35v-.61H465.15v.61Z" transform="translate(3.15 3.55)"/>
        <path class="cls-10" d="M-2.91,281.74v-.15H465.15v.15Z" transform="translate(3.15 3.55)"/>
        <path class="cls-13" d="M-2.91,281.59v-.16H465.15v.16Z" transform="translate(3.15 3.55)"/>
        <path class="cls-16" d="M-2.91,281.43v-.15H465.15v.15Z" transform="translate(3.15 3.55)"/>
        <path class="cls-41" d="M-2.91,281.28v-.46H465.15v.46Z" transform="translate(3.15 3.55)"/>
        <path class="cls-46" d="M-2.91,280.82v-.15H465.15v.15Z" transform="translate(3.15 3.55)"/>
        <path class="cls-25" d="M-2.91,280.67v-.45H465.15v.45Z" transform="translate(3.15 3.55)"/>
        <path class="cls-44" d="M-2.91,280.22v-.46H465.15v.46Z" transform="translate(3.15 3.55)"/>
        <path class="cls-43" d="M-2.91,279.76v-.3H465.15v.3Z" transform="translate(3.15 3.55)"/>
        <path class="cls-6" d="M-2.91,279.46v-.16H465.15v.16Z" transform="translate(3.15 3.55)"/>
        <path class="cls-7" d="M-2.91,279.3v-.15H465.15v.15Z" transform="translate(3.15 3.55)"/>
        <path class="cls-17" d="M-2.91,279.15V279H465.15v.15Z" transform="translate(3.15 3.55)"/>
        <path class="cls-16" d="M-2.91,279v-.31H465.15V279Z" transform="translate(3.15 3.55)"/>
        <path class="cls-12" d="M-2.91,278.69v-.3H465.15v.3Z" transform="translate(3.15 3.55)"/>
        <path class="cls-26" d="M-2.91,278.39v-1.52H465.15v1.52Z" transform="translate(3.15 3.55)"/>
        <path class="cls-24" d="M-2.91,276.87v-.15H465.15v.15Z" transform="translate(3.15 3.55)"/>
        <path class="cls-10" d="M-2.91,276.72V276H465.15v.77Z" transform="translate(3.15 3.55)"/>
        <path class="cls-15" d="M-2.91,276v-1.21H465.15V276Z" transform="translate(3.15 3.55)"/>
        <path class="cls-16" d="M-2.91,274.74v-.31H465.15v.31Z" transform="translate(3.15 3.55)"/>
        <path class="cls-37" d="M-2.91,274.43v-.15H465.15v.15Z" transform="translate(3.15 3.55)"/>
        <path class="cls-7" d="M-2.91,274.28V274H465.15v.3Z" transform="translate(3.15 3.55)"/>
        <path class="cls-24" d="M-2.91,274v-.46H465.15V274Z" transform="translate(3.15 3.55)"/>
        <path class="cls-29" d="M-2.91,273.52v-.3H465.15v.3Z" transform="translate(3.15 3.55)"/>
        <path class="cls-8" d="M-2.91,273.22v-.31H465.15v.31Z" transform="translate(3.15 3.55)"/>
        <path class="cls-26" d="M-2.91,272.91v-.3H465.15v.3Z" transform="translate(3.15 3.55)"/>
        <path class="cls-29" d="M-2.91,272.61v-.91H465.15v.91Z" transform="translate(3.15 3.55)"/>
        <path class="cls-25" d="M-2.91,271.7v-.16H465.15v.16Z" transform="translate(3.15 3.55)"/>
        <path class="cls-22" d="M-2.91,271.54v-.15H465.15v.15Z" transform="translate(3.15 3.55)"/>
        <path class="cls-19" d="M-2.91,271.39v-.3H465.15v.3Z" transform="translate(3.15 3.55)"/>
        <path class="cls-28" d="M-2.91,271.09v-.16H465.15v.16Z" transform="translate(3.15 3.55)"/>
        <path class="cls-6" d="M-2.91,270.93v-.45H465.15v.45Z" transform="translate(3.15 3.55)"/>
        <path class="cls-29" d="M-2.91,270.48v-.61H465.15v.61Z" transform="translate(3.15 3.55)"/>
        <path class="cls-7" d="M-2.91,269.87v-.31H465.15v.31Z" transform="translate(3.15 3.55)"/>
        <path class="cls-47" d="M-2.91,269.56v-.3H465.15v.3Z" transform="translate(3.15 3.55)"/>
        <path class="cls-10" d="M-2.91,269.26v-2.13H465.15v2.13Z" transform="translate(3.15 3.55)"/>
        <path class="cls-24" d="M-2.91,267.13v-.31H465.15v.31Z" transform="translate(3.15 3.55)"/>
        <path class="cls-34" d="M-2.91,266.82v-.15H465.15v.15Z" transform="translate(3.15 3.55)"/>
        <path class="cls-12" d="M-2.91,266.67v-.3H465.15v.3Z" transform="translate(3.15 3.55)"/>
        <path class="cls-12" d="M-2.91,266.37v-.76H465.15v.76Z" transform="translate(3.15 3.55)"/>
        <path class="cls-25" d="M-2.91,265.61v-.31H465.15v.31Z" transform="translate(3.15 3.55)"/>
        <path class="cls-25" d="M-2.91,265.3V265H465.15v.3Z" transform="translate(3.15 3.55)"/>
        <path class="cls-19" d="M-2.91,265v-.46H465.15V265Z" transform="translate(3.15 3.55)"/>
        <path class="cls-10" d="M-2.91,264.54v-.3H465.15v.3Z" transform="translate(3.15 3.55)"/>
        <path class="cls-15" d="M-2.91,264.24v-.31H465.15v.31Z" transform="translate(3.15 3.55)"/>
        <path class="cls-10" d="M-2.91,263.93v-.15H465.15v.15Z" transform="translate(3.15 3.55)"/>
        <path class="cls-37" d="M-2.91,263.78v-.15H465.15v.15Z" transform="translate(3.15 3.55)"/>
        <path class="cls-29" d="M-2.91,263.63v-.16H465.15v.16Z" transform="translate(3.15 3.55)"/>
        <path class="cls-6" d="M-2.91,263.47V263H465.15v.45Z" transform="translate(3.15 3.55)"/>
        <path class="cls-27" d="M-2.91,263v-.15H465.15V263Z" transform="translate(3.15 3.55)"/>
        <path class="cls-12" d="M-2.91,262.87v-.15H465.15v.15Z" transform="translate(3.15 3.55)"/>
        <path class="cls-22" d="M-2.91,262.72v-.16H465.15v.16Z" transform="translate(3.15 3.55)"/>
        <path class="cls-6" d="M-2.91,262.56V262H465.15v.61Z" transform="translate(3.15 3.55)"/>
        <path class="cls-12" d="M-2.91,262v-.3H465.15v.3Z" transform="translate(3.15 3.55)"/>
        <path class="cls-19" d="M-2.91,261.65v-.46H465.15v.46Z" transform="translate(3.15 3.55)"/>
        <path class="cls-7" d="M-2.91,261.19v-.6H465.15v.6Z" transform="translate(3.15 3.55)"/>
        <path class="cls-19" d="M-2.91,260.59v-1.53H465.15v1.53Z" transform="translate(3.15 3.55)"/>
        <path class="cls-10" d="M-2.91,259.06v-1.52H465.15v1.52Z" transform="translate(3.15 3.55)"/>
        <path class="cls-10" d="M-2.91,257.54v-1.07H465.15v1.07Z" transform="translate(3.15 3.55)"/>
        <path class="cls-19" d="M-2.91,256.47v-2.12H465.15v2.12Z" transform="translate(3.15 3.55)"/>
        <path class="cls-7" d="M-2.91,254.35v-.61H465.15v.61Z" transform="translate(3.15 3.55)"/>
        <path class="cls-16" d="M-2.91,253.74v-.92H465.15v.92Z" transform="translate(3.15 3.55)"/>
        <path class="cls-7" d="M-2.91,252.82v-.76H465.15v.76Z" transform="translate(3.15 3.55)"/>
        <path class="cls-7" d="M-2.91,252.06v-1.22H465.15v1.22Z" transform="translate(3.15 3.55)"/>
        <path class="cls-34" d="M-2.91,250.84v-1.21H465.15v1.21Z" transform="translate(3.15 3.55)"/>
        <path class="cls-5" d="M-2.91,249.63v-3.2H465.15v3.2Z" transform="translate(3.15 3.55)"/>
        <path class="cls-23" d="M-2.91,246.43V246H465.15v.46Z" transform="translate(3.15 3.55)"/>
        <path class="cls-16" d="M-2.91,246v-.6H465.15v.6Z" transform="translate(3.15 3.55)"/>
        <path class="cls-6" d="M-2.91,245.37v-.16H465.15v.16Z" transform="translate(3.15 3.55)"/>
        <path class="cls-6" d="M-2.91,245.21v-.61H465.15v.61Z" transform="translate(3.15 3.55)"/>
        <path class="cls-26" d="M-2.91,244.6v-.15H465.15v.15Z" transform="translate(3.15 3.55)"/>
        <path class="cls-39" d="M-2.91,244.45v-.15H465.15v.15Z" transform="translate(3.15 3.55)"/>
        <path class="cls-20" d="M-2.91,244.3v-.91H465.15v.91Z" transform="translate(3.15 3.55)"/>
        <path class="cls-16" d="M-2.91,243.39v-.92H465.15v.92Z" transform="translate(3.15 3.55)"/>
        <path class="cls-37" d="M-2.91,242.47v-.15H465.15v.15Z" transform="translate(3.15 3.55)"/>
        <path class="cls-16" d="M-2.91,242.32v-.15H465.15v.15Z" transform="translate(3.15 3.55)"/>
        <path class="cls-24" d="M-2.91,242.17v-.61H465.15v.61Z" transform="translate(3.15 3.55)"/>
        <path class="cls-6" d="M-2.91,241.56v-.15H465.15v.15Z" transform="translate(3.15 3.55)"/>
        <path class="cls-15" d="M-2.91,241.41v-.31H465.15v.31Z" transform="translate(3.15 3.55)"/>
        <path class="cls-19" d="M-2.91,241.1v-1.21H465.15v1.21Z" transform="translate(3.15 3.55)"/>
        <path class="cls-16" d="M-2.91,239.89v-.31H465.15v.31Z" transform="translate(3.15 3.55)"/>
        <path class="cls-29" d="M-2.91,239.58v-.45H465.15v.45Z" transform="translate(3.15 3.55)"/>
        <path class="cls-8" d="M-2.91,239.13v-.92H465.15v.92Z" transform="translate(3.15 3.55)"/>
        <path class="cls-23" d="M-2.91,238.21v-.3H465.15v.3Z" transform="translate(3.15 3.55)"/>
        <path class="cls-15" d="M-2.91,237.91v-.61H465.15v.61Z" transform="translate(3.15 3.55)"/>
        <path class="cls-24" d="M-2.91,237.3v-.61H465.15v.61Z" transform="translate(3.15 3.55)"/>
        <path class="cls-28" d="M-2.91,236.69v-.76H465.15v.76Z" transform="translate(3.15 3.55)"/>
        <path class="cls-7" d="M-2.91,235.93v-.46H465.15v.46Z" transform="translate(3.15 3.55)"/>
        <path class="cls-6" d="M-2.91,235.47v-1.06H465.15v1.06Z" transform="translate(3.15 3.55)"/>
        <path class="cls-24" d="M-2.91,234.41v-.76H465.15v.76Z" transform="translate(3.15 3.55)"/>
        <path class="cls-12" d="M-2.91,233.65v-.46H465.15v.46Z" transform="translate(3.15 3.55)"/>
        <path class="cls-43" d="M-2.91,233.19v-.46H465.15v.46Z" transform="translate(3.15 3.55)"/>
        <path class="cls-14" d="M-2.91,232.73v-.15H465.15v.15Z" transform="translate(3.15 3.55)"/>
        <path class="cls-42" d="M-2.91,232.58v-1.06H465.15v1.06Z" transform="translate(3.15 3.55)"/>
        <path class="cls-24" d="M-2.91,231.52v-.16H465.15v.16Z" transform="translate(3.15 3.55)"/>
        <path class="cls-21" d="M-2.91,231.36v-.45H465.15v.45Z" transform="translate(3.15 3.55)"/>
        <path class="cls-28" d="M-2.91,230.91v-.15H465.15v.15Z" transform="translate(3.15 3.55)"/>
        <path class="cls-22" d="M-2.91,230.76v-.46H465.15v.46Z" transform="translate(3.15 3.55)"/>
        <path class="cls-10" d="M-2.91,230.3v-.15H465.15v.15Z" transform="translate(3.15 3.55)"/>
        <path class="cls-6" d="M-2.91,230.15v-.46H465.15v.46Z" transform="translate(3.15 3.55)"/>
        <path class="cls-10" d="M-2.91,229.69v-.91H465.15v.91Z" transform="translate(3.15 3.55)"/>
        <path class="cls-12" d="M-2.91,228.78v-.61H465.15v.61Z" transform="translate(3.15 3.55)"/>
        <path class="cls-22" d="M-2.91,228.17v-.61H465.15v.61Z" transform="translate(3.15 3.55)"/>
        <path class="cls-48" d="M-2.91,227.56v-.46H465.15v.46Z" transform="translate(3.15 3.55)"/>
        <path class="cls-6" d="M-2.91,227.1V227H465.15v.15Z" transform="translate(3.15 3.55)"/>
        <path class="cls-26" d="M-2.91,227v-.61H465.15V227Z" transform="translate(3.15 3.55)"/>
        <path class="cls-32" d="M-2.91,226.34v-.15H465.15v.15Z" transform="translate(3.15 3.55)"/>
        <path class="cls-45" d="M-2.91,226.19V226H465.15v.15Z" transform="translate(3.15 3.55)"/>
        <path class="cls-5" d="M-2.91,226v-.46H465.15V226Z" transform="translate(3.15 3.55)"/>
        <path class="cls-30" d="M-2.91,225.58v-.3H465.15v.3Z" transform="translate(3.15 3.55)"/>
        <path class="cls-12" d="M-2.91,225.28V225H465.15v.31Z" transform="translate(3.15 3.55)"/>
        <path class="cls-14" d="M-2.91,225v-.45H465.15V225Z" transform="translate(3.15 3.55)"/>
        <path class="cls-14" d="M-2.91,224.52v-1.07H465.15v1.07Z" transform="translate(3.15 3.55)"/>
        <path class="cls-10" d="M-2.91,223.45v-.91H465.15v.91Z" transform="translate(3.15 3.55)"/>
        <path class="cls-26" d="M-2.91,222.54v-.31H465.15v.31Z" transform="translate(3.15 3.55)"/>
        <path class="cls-14" d="M-2.91,222.23v-.3H465.15v.3Z" transform="translate(3.15 3.55)"/>
        <path class="cls-24" d="M-2.91,221.93v-.31H465.15v.31Z" transform="translate(3.15 3.55)"/>
        <path class="cls-36" d="M-2.91,221.62v-.3H465.15v.3Z" transform="translate(3.15 3.55)"/>
        <path class="cls-14" d="M-2.91,221.32v-.61H465.15v.61Z" transform="translate(3.15 3.55)"/>
        <path class="cls-24" d="M-2.91,220.71v-.91H465.15v.91Z" transform="translate(3.15 3.55)"/>
        <path class="cls-10" d="M-2.91,219.8V219H465.15v.76Z" transform="translate(3.15 3.55)"/>
        <path class="cls-16" d="M-2.91,219v-.15H465.15V219Z" transform="translate(3.15 3.55)"/>
        <path class="cls-19" d="M-2.91,218.89v-1.68H465.15v1.68Z" transform="translate(3.15 3.55)"/>
        <path class="cls-21" d="M-2.91,217.21v-.15H465.15v.15Z" transform="translate(3.15 3.55)"/>
        <path class="cls-16" d="M-2.91,217.06v-.15H465.15v.15Z" transform="translate(3.15 3.55)"/>
        <path class="cls-12" d="M-2.91,216.91v-.16H465.15v.16Z" transform="translate(3.15 3.55)"/>
        <path class="cls-7" d="M-2.91,216.75v-.45H465.15v.45Z" transform="translate(3.15 3.55)"/>
        <path class="cls-13" d="M-2.91,216.3v-.46H465.15v.46Z" transform="translate(3.15 3.55)"/>
        <path class="cls-24" d="M-2.91,215.84v-.45H465.15v.45Z" transform="translate(3.15 3.55)"/>
        <path class="cls-10" d="M-2.91,215.39v-.46H465.15v.46Z" transform="translate(3.15 3.55)"/>
        <path class="cls-22" d="M-2.91,214.93v-.31H465.15v.31Z" transform="translate(3.15 3.55)"/>
        <path class="cls-28" d="M-2.91,214.62v-.3H465.15v.3Z" transform="translate(3.15 3.55)"/>
        <path class="cls-35" d="M-2.91,214.32V214H465.15v.31Z" transform="translate(3.15 3.55)"/>
        <path class="cls-12" d="M-2.91,214v-.6H465.15v.6Z" transform="translate(3.15 3.55)"/>
        <path class="cls-14" d="M-2.91,213.41v-.31H465.15v.31Z" transform="translate(3.15 3.55)"/>
        <path class="cls-5" d="M-2.91,213.1v-.3H465.15v.3Z" transform="translate(3.15 3.55)"/>
        <path class="cls-14" d="M-2.91,212.8v-.31H465.15v.31Z" transform="translate(3.15 3.55)"/>
        <path class="cls-39" d="M-2.91,212.49v-.6H465.15v.6Z" transform="translate(3.15 3.55)"/>
        <path class="cls-12" d="M-2.91,211.89v-.16H465.15v.16Z" transform="translate(3.15 3.55)"/>
        <path class="cls-25" d="M-2.91,211.73v-.61H465.15v.61Z" transform="translate(3.15 3.55)"/>
        <path class="cls-14" d="M-2.91,211.12V211H465.15v.15Z" transform="translate(3.15 3.55)"/>
        <path class="cls-15" d="M-2.91,211v-5.78H465.15V211Z" transform="translate(3.15 3.55)"/>
        <path class="cls-34" d="M-2.91,205.19v-.46H465.15v.46Z" transform="translate(3.15 3.55)"/>
        <path class="cls-19" d="M-2.91,204.73v-.3H465.15v.3Z" transform="translate(3.15 3.55)"/>
        <path class="cls-37" d="M-2.91,204.43v-.76H465.15v.76Z" transform="translate(3.15 3.55)"/>
        <path class="cls-26" d="M-2.91,203.67v-.61H465.15v.61Z" transform="translate(3.15 3.55)"/>
        <path class="cls-22" d="M-2.91,203.06V202H465.15v1.07Z" transform="translate(3.15 3.55)"/>
        <path class="cls-27" d="M-2.91,202v-.3H465.15v.3Z" transform="translate(3.15 3.55)"/>
        <path class="cls-23" d="M-2.91,201.69v-.46H465.15v.46Z" transform="translate(3.15 3.55)"/>
        <path class="cls-14" d="M-2.91,201.23V200H465.15v1.22Z" transform="translate(3.15 3.55)"/>
        <path class="cls-23" d="M-2.91,200v-.6H465.15v.6Z" transform="translate(3.15 3.55)"/>
        <path class="cls-6" d="M-2.91,199.41v-.31H465.15v.31Z" transform="translate(3.15 3.55)"/>
        <path class="cls-32" d="M-2.91,199.1v-1.67H465.15v1.67Z" transform="translate(3.15 3.55)"/>
        <path class="cls-49" d="M-2.91,197.43v-1.22H465.15v1.22Z" transform="translate(3.15 3.55)"/>
        <path class="cls-24" d="M-2.91,196.21v-.3H465.15v.3Z" transform="translate(3.15 3.55)"/>
        <path class="cls-22" d="M-2.91,195.91v-3H465.15v3Z" transform="translate(3.15 3.55)"/>
        <path class="cls-10" d="M-2.91,192.86V191.8H465.15v1.06Z" transform="translate(3.15 3.55)"/>
        <path class="cls-12" d="M-2.91,191.8v-.61H465.15v.61Z" transform="translate(3.15 3.55)"/>
        <path class="cls-23" d="M-2.91,191.19V190H465.15v1.22Z" transform="translate(3.15 3.55)"/>
        <path class="cls-28" d="M-2.91,190v-.76H465.15V190Z" transform="translate(3.15 3.55)"/>
        <path class="cls-8" d="M-2.91,189.21v-1.07H465.15v1.07Z" transform="translate(3.15 3.55)"/>
        <path class="cls-9" d="M-2.91,188.14v-.3H465.15v.3Z" transform="translate(3.15 3.55)"/>
        <path class="cls-32" d="M-2.91,187.84v-.46H465.15v.46Z" transform="translate(3.15 3.55)"/>
        <path class="cls-12" d="M-2.91,187.38v-.76H465.15v.76Z" transform="translate(3.15 3.55)"/>
        <path class="cls-34" d="M-2.91,186.62v-.15H465.15v.15Z" transform="translate(3.15 3.55)"/>
        <path class="cls-48" d="M-2.91,186.47v-.15H465.15v.15Z" transform="translate(3.15 3.55)"/>
        <path class="cls-21" d="M-2.91,186.32v-.76H465.15v.76Z" transform="translate(3.15 3.55)"/>
        <path class="cls-9" d="M-2.91,185.56v-1.37H465.15v1.37Z" transform="translate(3.15 3.55)"/>
        <path class="cls-13" d="M-2.91,184.19v-.76H465.15v.76Z" transform="translate(3.15 3.55)"/>
        <path class="cls-24" d="M-2.91,183.43v-.16H465.15v.16Z" transform="translate(3.15 3.55)"/>
        <path class="cls-7" d="M-2.91,183.27v-.76H465.15v.76Z" transform="translate(3.15 3.55)"/>
        <path class="cls-37" d="M-2.91,182.51v-.76H465.15v.76Z" transform="translate(3.15 3.55)"/>
        <path class="cls-18" d="M-2.91,181.75v-1.37H465.15v1.37Z" transform="translate(3.15 3.55)"/>
        <path class="cls-12" d="M-2.91,180.38v-.91H465.15v.91Z" transform="translate(3.15 3.55)"/>
        <path class="cls-23" d="M-2.91,179.47v-.15H465.15v.15Z" transform="translate(3.15 3.55)"/>
        <path class="cls-15" d="M-2.91,179.32v-.15H465.15v.15Z" transform="translate(3.15 3.55)"/>
        <path class="cls-25" d="M-2.91,179.17v-.77H465.15v.77Z" transform="translate(3.15 3.55)"/>
        <path class="cls-35" d="M-2.91,178.4v-.3H465.15v.3Z" transform="translate(3.15 3.55)"/>
        <path class="cls-7" d="M-2.91,178.1v-.46H465.15v.46Z" transform="translate(3.15 3.55)"/>
        <path class="cls-12" d="M-2.91,177.64V177H465.15v.61Z" transform="translate(3.15 3.55)"/>
        <path class="cls-26" d="M-2.91,177v-.6H465.15v.6Z" transform="translate(3.15 3.55)"/>
        <path class="cls-44" d="M-2.91,176.43v-.16H465.15v.16Z" transform="translate(3.15 3.55)"/>
        <path class="cls-41" d="M-2.91,176.27V176H465.15v.3Z" transform="translate(3.15 3.55)"/>
        <path class="cls-29" d="M-2.91,176v-.15H465.15V176Z" transform="translate(3.15 3.55)"/>
        <path class="cls-22" d="M-2.91,175.82v-.46H465.15v.46Z" transform="translate(3.15 3.55)"/>
        <path class="cls-7" d="M-2.91,175.36v-.3H465.15v.3Z" transform="translate(3.15 3.55)"/>
        <path class="cls-27" d="M-2.91,175.06v-.16H465.15v.16Z" transform="translate(3.15 3.55)"/>
        <path class="cls-45" d="M-2.91,174.9v-.3H465.15v.3Z" transform="translate(3.15 3.55)"/>
        <path class="cls-23" d="M-2.91,174.6V174H465.15v.61Z" transform="translate(3.15 3.55)"/>
        <path class="cls-25" d="M-2.91,174v-1.22H465.15V174Z" transform="translate(3.15 3.55)"/>
        <path class="cls-4" d="M-2.91,172.77v-.61H465.15v.61Z" transform="translate(3.15 3.55)"/>
        <path class="cls-19" d="M-2.91,172.16v-.6H465.15v.6Z" transform="translate(3.15 3.55)"/>
        <path class="cls-47" d="M-2.91,171.56V171H465.15v.61Z" transform="translate(3.15 3.55)"/>
        <path class="cls-26" d="M-2.91,171v-.61H465.15V171Z" transform="translate(3.15 3.55)"/>
        <path class="cls-17" d="M-2.91,170.34v-.76H465.15v.76Z" transform="translate(3.15 3.55)"/>
        <path class="cls-7" d="M-2.91,169.58v-.76H465.15v.76Z" transform="translate(3.15 3.55)"/>
        <path class="cls-5" d="M-2.91,168.82v-.92H465.15v.92Z" transform="translate(3.15 3.55)"/>
        <path class="cls-23" d="M-2.91,167.9v-.15H465.15v.15Z" transform="translate(3.15 3.55)"/>
        <path class="cls-22" d="M-2.91,167.75v-.3H465.15v.3Z" transform="translate(3.15 3.55)"/>
        <path class="cls-43" d="M-2.91,167.45v-.61H465.15v.61Z" transform="translate(3.15 3.55)"/>
        <path class="cls-35" d="M-2.91,166.84v-.31H465.15v.31Z" transform="translate(3.15 3.55)"/>
        <path class="cls-7" d="M-2.91,166.53v-.3H465.15v.3Z" transform="translate(3.15 3.55)"/>
        <path class="cls-43" d="M-2.91,166.23v-.31H465.15v.31Z" transform="translate(3.15 3.55)"/>
        <path class="cls-7" d="M-2.91,165.92v-.15H465.15v.15Z" transform="translate(3.15 3.55)"/>
        <path class="cls-10" d="M-2.91,165.77v-.15H465.15v.15Z" transform="translate(3.15 3.55)"/>
        <path class="cls-14" d="M-2.91,165.62v-.3H465.15v.3Z" transform="translate(3.15 3.55)"/>
        <path class="cls-21" d="M-2.91,165.32v-.92H465.15v.92Z" transform="translate(3.15 3.55)"/>
        <path class="cls-50" d="M-2.91,164.4V164H465.15v.45Z" transform="translate(3.15 3.55)"/>
        <path class="cls-6" d="M-2.91,164v-1.22H465.15V164Z" transform="translate(3.15 3.55)"/>
        <path class="cls-25" d="M-2.91,162.73v-.31H465.15v.31Z" transform="translate(3.15 3.55)"/>
        <path class="cls-21" d="M-2.91,162.42V162H465.15v.45Z" transform="translate(3.15 3.55)"/>
        <path class="cls-7" d="M-2.91,162v-.15H465.15V162Z" transform="translate(3.15 3.55)"/>
        <path class="cls-23" d="M-2.91,161.82v-.16H465.15v.16Z" transform="translate(3.15 3.55)"/>
        <path class="cls-50" d="M-2.91,161.66v-.3H465.15v.3Z" transform="translate(3.15 3.55)"/>
        <path class="cls-25" d="M-2.91,161.36v-.3H465.15v.3Z" transform="translate(3.15 3.55)"/>
        <path class="cls-23" d="M-2.91,161.06v-.16H465.15v.16Z" transform="translate(3.15 3.55)"/>
        <path class="cls-6" d="M-2.91,160.9v-.15H465.15v.15Z" transform="translate(3.15 3.55)"/>
        <path class="cls-29" d="M-2.91,160.75v-2H465.15v2Z" transform="translate(3.15 3.55)"/>
        <path class="cls-24" d="M-2.91,158.77v-.15H465.15v.15Z" transform="translate(3.15 3.55)"/>
        <path class="cls-29" d="M-2.91,158.62v-.46H465.15v.46Z" transform="translate(3.15 3.55)"/>
        <path class="cls-10" d="M-2.91,158.16v-1.52H465.15v1.52Z" transform="translate(3.15 3.55)"/>
        <path class="cls-21" d="M-2.91,156.64v-.91H465.15v.91Z" transform="translate(3.15 3.55)"/>
        <path class="cls-7" d="M-2.91,155.73v-.46H465.15v.46Z" transform="translate(3.15 3.55)"/>
        <path class="cls-18" d="M-2.91,155.27v-.15H465.15v.15Z" transform="translate(3.15 3.55)"/>
        <path class="cls-10" d="M-2.91,155.12v-.91H465.15v.91Z" transform="translate(3.15 3.55)"/>
        <path class="cls-6" d="M-2.91,154.21v-.46H465.15v.46Z" transform="translate(3.15 3.55)"/>
        <path class="cls-22" d="M-2.91,153.75v-.3H465.15v.3Z" transform="translate(3.15 3.55)"/>
        <path class="cls-28" d="M-2.91,153.45v-.31H465.15v.31Z" transform="translate(3.15 3.55)"/>
        <path class="cls-22" d="M-2.91,153.14V151H465.15v2.13Z" transform="translate(3.15 3.55)"/>
        <path class="cls-18" d="M-2.91,151v-.46H465.15V151Z" transform="translate(3.15 3.55)"/>
        <path class="cls-12" d="M-2.91,150.55v-.45H465.15v.45Z" transform="translate(3.15 3.55)"/>
        <path class="cls-18" d="M-2.91,150.1V150H465.15v.15Z" transform="translate(3.15 3.55)"/>
        <path class="cls-22" d="M-2.91,150v-.31H465.15V150Z" transform="translate(3.15 3.55)"/>
        <path class="cls-14" d="M-2.91,149.64v-.15H465.15v.15Z" transform="translate(3.15 3.55)"/>
        <path class="cls-49" d="M-2.91,149.49v-1.22H465.15v1.22Z" transform="translate(3.15 3.55)"/>
        <path class="cls-26" d="M-2.91,148.27V148H465.15v.3Z" transform="translate(3.15 3.55)"/>
        <path class="cls-14" d="M-2.91,148v-.46H465.15V148Z" transform="translate(3.15 3.55)"/>
        <path class="cls-6" d="M-2.91,147.51v-3.65H465.15v3.65Z" transform="translate(3.15 3.55)"/>
        <path class="cls-8" d="M-2.91,143.86v-.15H465.15v.15Z" transform="translate(3.15 3.55)"/>
        <path class="cls-44" d="M-2.91,143.71v-.77H465.15v.77Z" transform="translate(3.15 3.55)"/>
        <path class="cls-25" d="M-2.91,142.94v-.15H465.15v.15Z" transform="translate(3.15 3.55)"/>
        <path class="cls-21" d="M-2.91,142.79v-.15H465.15v.15Z" transform="translate(3.15 3.55)"/>
        <path class="cls-26" d="M-2.91,142.64v-.3H465.15v.3Z" transform="translate(3.15 3.55)"/>
        <path class="cls-43" d="M-2.91,142.34V142H465.15v.31Z" transform="translate(3.15 3.55)"/>
        <path class="cls-13" d="M-2.91,142v-.15H465.15V142Z" transform="translate(3.15 3.55)"/>
        <path class="cls-22" d="M-2.91,141.88v-.61H465.15v.61Z" transform="translate(3.15 3.55)"/>
        <path class="cls-41" d="M-2.91,141.27v-.15H465.15v.15Z" transform="translate(3.15 3.55)"/>
        <path class="cls-16" d="M-2.91,141.12v-.91H465.15v.91Z" transform="translate(3.15 3.55)"/>
        <path class="cls-10" d="M-2.91,140.21v-.31H465.15v.31Z" transform="translate(3.15 3.55)"/>
        <path class="cls-14" d="M-2.91,139.9v-1.06H465.15v1.06Z" transform="translate(3.15 3.55)"/>
        <path class="cls-22" d="M-2.91,138.84v-.31H465.15v.31Z" transform="translate(3.15 3.55)"/>
        <path class="cls-6" d="M-2.91,138.53v-.3H465.15v.3Z" transform="translate(3.15 3.55)"/>
        <path class="cls-43" d="M-2.91,138.23v-.31H465.15v.31Z" transform="translate(3.15 3.55)"/>
        <path class="cls-14" d="M-2.91,137.92v-.3H465.15v.3Z" transform="translate(3.15 3.55)"/>
        <path class="cls-7" d="M-2.91,137.62v-.15H465.15v.15Z" transform="translate(3.15 3.55)"/>
        <path class="cls-12" d="M-2.91,137.47v-.61H465.15v.61Z" transform="translate(3.15 3.55)"/>
        <path class="cls-19" d="M-2.91,136.86v-.31H465.15v.31Z" transform="translate(3.15 3.55)"/>
        <path class="cls-24" d="M-2.91,136.55v-.3H465.15v.3Z" transform="translate(3.15 3.55)"/>
        <path class="cls-29" d="M-2.91,136.25V136H465.15v.3Z" transform="translate(3.15 3.55)"/>
        <path class="cls-14" d="M-2.91,136v-.16H465.15V136Z" transform="translate(3.15 3.55)"/>
        <path class="cls-6" d="M-2.91,135.79v-.46H465.15v.46Z" transform="translate(3.15 3.55)"/>
        <path class="cls-28" d="M-2.91,135.33v-.75H465.15v.75Z" transform="translate(3.15 3.55)"/>
        <path class="cls-21" d="M-2.91,134.58v-.16H465.15v.16Z" transform="translate(3.15 3.55)"/>
        <path class="cls-51" d="M-2.91,134.42v-.3H465.15v.3Z" transform="translate(3.15 3.55)"/>
        <path class="cls-30" d="M-2.91,134.12V134H465.15v.15Z" transform="translate(3.15 3.55)"/>
        <path class="cls-22" d="M-2.91,134v-.16H465.15V134Z" transform="translate(3.15 3.55)"/>
        <path class="cls-18" d="M-2.91,133.81v-.15H465.15v.15Z" transform="translate(3.15 3.55)"/>
        <path class="cls-22" d="M-2.91,133.66v-.45H465.15v.45Z" transform="translate(3.15 3.55)"/>
        <path class="cls-10" d="M-2.91,133.21v-.16H465.15v.16Z" transform="translate(3.15 3.55)"/>
        <path class="cls-23" d="M-2.91,133.05v-.15H465.15v.15Z" transform="translate(3.15 3.55)"/>
        <path class="cls-30" d="M-2.91,132.9v-.46H465.15v.46Z" transform="translate(3.15 3.55)"/>
        <path class="cls-19" d="M-2.91,132.44v-.3H465.15v.3Z" transform="translate(3.15 3.55)"/>
        <path class="cls-7" d="M-2.91,132.14v-.61H465.15v.61Z" transform="translate(3.15 3.55)"/>
        <path class="cls-30" d="M-2.91,131.53v-.3H465.15v.3Z" transform="translate(3.15 3.55)"/>
        <path class="cls-10" d="M-2.91,131.23v-.92H465.15v.92Z" transform="translate(3.15 3.55)"/>
        <path class="cls-7" d="M-2.91,130.31v-.45H465.15v.45Z" transform="translate(3.15 3.55)"/>
        <path class="cls-7" d="M-2.91,129.86v-.31H465.15v.31Z" transform="translate(3.15 3.55)"/>
        <path class="cls-45" d="M-2.91,129.55v-.3H465.15v.3Z" transform="translate(3.15 3.55)"/>
        <path class="cls-7" d="M-2.91,129.25v-.31H465.15v.31Z" transform="translate(3.15 3.55)"/>
        <path class="cls-16" d="M-2.91,128.94v-.3H465.15v.3Z" transform="translate(3.15 3.55)"/>
        <path class="cls-19" d="M-2.91,128.64v-.15H465.15v.15Z" transform="translate(3.15 3.55)"/>
        <path class="cls-22" d="M-2.91,128.49v-.31H465.15v.31Z" transform="translate(3.15 3.55)"/>
        <path class="cls-10" d="M-2.91,128.18v-.6H465.15v.6Z" transform="translate(3.15 3.55)"/>
        <path class="cls-19" d="M-2.91,127.58v-.16H465.15v.16Z" transform="translate(3.15 3.55)"/>
        <path class="cls-12" d="M-2.91,127.42v-.3H465.15v.3Z" transform="translate(3.15 3.55)"/>
        <path class="cls-10" d="M-2.91,127.12V125.9H465.15v1.22Z" transform="translate(3.15 3.55)"/>
        <path class="cls-25" d="M-2.91,125.9v-1.37H465.15v1.37Z" transform="translate(3.15 3.55)"/>
        <path class="cls-30" d="M-2.91,124.53v-.3H465.15v.3Z" transform="translate(3.15 3.55)"/>
        <path class="cls-20" d="M-2.91,124.23V122.4H465.15v1.83Z" transform="translate(3.15 3.55)"/>
        <path class="cls-19" d="M-2.91,122.4v-.61H465.15v.61Z" transform="translate(3.15 3.55)"/>
        <path class="cls-12" d="M-2.91,121.79v-1.67H465.15v1.67Z" transform="translate(3.15 3.55)"/>
        <path class="cls-19" d="M-2.91,120.12V120H465.15v.15Z" transform="translate(3.15 3.55)"/>
        <path class="cls-22" d="M-2.91,120v-.61H465.15V120Z" transform="translate(3.15 3.55)"/>
        <path class="cls-20" d="M-2.91,119.36v-.46H465.15v.46Z" transform="translate(3.15 3.55)"/>
        <path class="cls-36" d="M-2.91,118.9v-.3H465.15v.3Z" transform="translate(3.15 3.55)"/>
        <path class="cls-19" d="M-2.91,118.6v-1.07H465.15v1.07Z" transform="translate(3.15 3.55)"/>
        <path class="cls-10" d="M-2.91,117.53v-5H465.15v5Z" transform="translate(3.15 3.55)"/>
        <path class="cls-24" d="M-2.91,112.51v-.91H465.15v.91Z" transform="translate(3.15 3.55)"/>
        <path class="cls-32" d="M-2.91,111.6v-.46H465.15v.46Z" transform="translate(3.15 3.55)"/>
        <path class="cls-33" d="M-2.91,111.14v-.31H465.15v.31Z" transform="translate(3.15 3.55)"/>
        <path class="cls-24" d="M-2.91,110.83v-.45H465.15v.45Z" transform="translate(3.15 3.55)"/>
        <path class="cls-7" d="M-2.91,110.38v-.76H465.15v.76Z" transform="translate(3.15 3.55)"/>
        <path class="cls-33" d="M-2.91,109.62v-.31H465.15v.31Z" transform="translate(3.15 3.55)"/>
        <path class="cls-34" d="M-2.91,109.31v-.45H465.15v.45Z" transform="translate(3.15 3.55)"/>
        <path class="cls-14" d="M-2.91,108.86v-.31H465.15v.31Z" transform="translate(3.15 3.55)"/>
        <path class="cls-13" d="M-2.91,108.55v-.15H465.15v.15Z" transform="translate(3.15 3.55)"/>
        <path class="cls-21" d="M-2.91,108.4v-.15H465.15v.15Z" transform="translate(3.15 3.55)"/>
        <path class="cls-6" d="M-2.91,108.25v-.92H465.15v.92Z" transform="translate(3.15 3.55)"/>
        <path class="cls-19" d="M-2.91,107.33v-.15H465.15v.15Z" transform="translate(3.15 3.55)"/>
        <path class="cls-7" d="M-2.91,107.18v-.61H465.15v.61Z" transform="translate(3.15 3.55)"/>
        <path class="cls-25" d="M-2.91,106.57V106H465.15v.61Z" transform="translate(3.15 3.55)"/>
        <path class="cls-4" d="M-2.91,106v-.15H465.15V106Z" transform="translate(3.15 3.55)"/>
        <path class="cls-21" d="M-2.91,105.81v-.45H465.15v.45Z" transform="translate(3.15 3.55)"/>
        <path class="cls-7" d="M-2.91,105.36v-.76H465.15v.76Z" transform="translate(3.15 3.55)"/>
        <path class="cls-21" d="M-2.91,104.6v-.16H465.15v.16Z" transform="translate(3.15 3.55)"/>
        <path class="cls-19" d="M-2.91,104.44v-.15H465.15v.15Z" transform="translate(3.15 3.55)"/>
        <path class="cls-39" d="M-2.91,104.29V104H465.15v.3Z" transform="translate(3.15 3.55)"/>
        <path class="cls-26" d="M-2.91,104v-.46H465.15V104Z" transform="translate(3.15 3.55)"/>
        <path class="cls-12" d="M-2.91,103.53v-.61H465.15v.61Z" transform="translate(3.15 3.55)"/>
        <path class="cls-27" d="M-2.91,102.92v-.15H465.15v.15Z" transform="translate(3.15 3.55)"/>
        <path class="cls-14" d="M-2.91,102.77v-.61H465.15v.61Z" transform="translate(3.15 3.55)"/>
        <path class="cls-21" d="M-2.91,102.16v-.61H465.15v.61Z" transform="translate(3.15 3.55)"/>
        <path class="cls-9" d="M-2.91,101.55v-.61H465.15v.61Z" transform="translate(3.15 3.55)"/>
        <path class="cls-6" d="M-2.91,100.94v-.45H465.15v.45Z" transform="translate(3.15 3.55)"/>
        <path class="cls-6" d="M-2.91,100.49V99.27H465.15v1.22Z" transform="translate(3.15 3.55)"/>
        <path class="cls-30" d="M-2.91,99.27v-.15H465.15v.15Z" transform="translate(3.15 3.55)"/>
        <path class="cls-23" d="M-2.91,99.12V99H465.15v.16Z" transform="translate(3.15 3.55)"/>
        <path class="cls-19" d="M-2.91,99V97.29H465.15V99Z" transform="translate(3.15 3.55)"/>
        <path class="cls-6" d="M-2.91,97.29v-.61H465.15v.61Z" transform="translate(3.15 3.55)"/>
        <path class="cls-26" d="M-2.91,96.68v-.76H465.15v.76Z" transform="translate(3.15 3.55)"/>
        <path class="cls-14" d="M-2.91,95.92v-.15H465.15v.15Z" transform="translate(3.15 3.55)"/>
        <path class="cls-28" d="M-2.91,95.77v-.31H465.15v.31Z" transform="translate(3.15 3.55)"/>
        <path class="cls-27" d="M-2.91,95.46v-.15H465.15v.15Z" transform="translate(3.15 3.55)"/>
        <path class="cls-21" d="M-2.91,95.31V95H465.15v.3Z" transform="translate(3.15 3.55)"/>
        <path class="cls-30" d="M-2.91,95v-.16H465.15V95Z" transform="translate(3.15 3.55)"/>
        <path class="cls-12" d="M-2.91,94.85V94.7H465.15v.15Z" transform="translate(3.15 3.55)"/>
        <path class="cls-7" d="M-2.91,94.7v-.61H465.15v.61Z" transform="translate(3.15 3.55)"/>
        <path class="cls-20" d="M-2.91,94.09v-.15H465.15v.15Z" transform="translate(3.15 3.55)"/>
        <path class="cls-4" d="M-2.91,93.94v-.15H465.15v.15Z" transform="translate(3.15 3.55)"/>
        <path class="cls-36" d="M-2.91,93.79v-.31H465.15v.31Z" transform="translate(3.15 3.55)"/>
        <path class="cls-14" d="M-2.91,93.48v-.15H465.15v.15Z" transform="translate(3.15 3.55)"/>
        <path class="cls-52" d="M-2.91,93.33v-.15H465.15v.15Z" transform="translate(3.15 3.55)"/>
        <path class="cls-53" d="M-2.91,93.18v-.3H465.15v.3Z" transform="translate(3.15 3.55)"/>
        <path class="cls-24" d="M-2.91,92.88v-.16H465.15v.16Z" transform="translate(3.15 3.55)"/>
        <path class="cls-6" d="M-2.91,92.72v-.61H465.15v.61Z" transform="translate(3.15 3.55)"/>
        <path class="cls-25" d="M-2.91,92.11V92H465.15v.15Z" transform="translate(3.15 3.55)"/>
        <path class="cls-37" d="M-2.91,92v-.61H465.15V92Z" transform="translate(3.15 3.55)"/>
        <path class="cls-22" d="M-2.91,91.35V91.2H465.15v.15Z" transform="translate(3.15 3.55)"/>
        <path class="cls-23" d="M-2.91,91.2v-.3H465.15v.3Z" transform="translate(3.15 3.55)"/>
        <path class="cls-10" d="M-2.91,90.9v-2H465.15v2Z" transform="translate(3.15 3.55)"/>
        <path class="cls-30" d="M-2.91,88.92V87.85H465.15v1.07Z" transform="translate(3.15 3.55)"/>
        <path class="cls-48" d="M-2.91,87.85v-.3H465.15v.3Z" transform="translate(3.15 3.55)"/>
        <path class="cls-7" d="M-2.91,87.55v-.76H465.15v.76Z" transform="translate(3.15 3.55)"/>
        <path class="cls-29" d="M-2.91,86.79v-.46H465.15v.46Z" transform="translate(3.15 3.55)"/>
        <path class="cls-26" d="M-2.91,86.33V85.27H465.15v1.06Z" transform="translate(3.15 3.55)"/>
        <path class="cls-9" d="M-2.91,85.27v-.15H465.15v.15Z" transform="translate(3.15 3.55)"/>
        <path class="cls-22" d="M-2.91,85.12v-.61H465.15v.61Z" transform="translate(3.15 3.55)"/>
        <path class="cls-29" d="M-2.91,84.51v-.16H465.15v.16Z" transform="translate(3.15 3.55)"/>
        <path class="cls-26" d="M-2.91,84.35v-.3H465.15v.3Z" transform="translate(3.15 3.55)"/>
        <path class="cls-24" d="M-2.91,84.05v-.61H465.15v.61Z" transform="translate(3.15 3.55)"/>
        <path class="cls-18" d="M-2.91,83.44v-.15H465.15v.15Z" transform="translate(3.15 3.55)"/>
        <path class="cls-23" d="M-2.91,83.29v-.15H465.15v.15Z" transform="translate(3.15 3.55)"/>
        <path class="cls-22" d="M-2.91,83.14V83H465.15v.16Z" transform="translate(3.15 3.55)"/>
        <path class="cls-22" d="M-2.91,83v-.15H465.15V83Z" transform="translate(3.15 3.55)"/>
        <path class="cls-15" d="M-2.91,82.83v-.61H465.15v.61Z" transform="translate(3.15 3.55)"/>
        <path class="cls-22" d="M-2.91,82.22v-.15H465.15v.15Z" transform="translate(3.15 3.55)"/>
        <path class="cls-22" d="M-2.91,82.07v-.15H465.15v.15Z" transform="translate(3.15 3.55)"/>
        <path class="cls-23" d="M-2.91,81.92v-.46H465.15v.46Z" transform="translate(3.15 3.55)"/>
        <path class="cls-15" d="M-2.91,81.46v-.15H465.15v.15Z" transform="translate(3.15 3.55)"/>
        <path class="cls-16" d="M-2.91,81.31V81H465.15v.3Z" transform="translate(3.15 3.55)"/>
        <path class="cls-19" d="M-2.91,81v-.92H465.15V81Z" transform="translate(3.15 3.55)"/>
        <path class="cls-16" d="M-2.91,80.09v-.3H465.15v.3Z" transform="translate(3.15 3.55)"/>
        <path class="cls-45" d="M-2.91,79.79v-.31H465.15v.31Z" transform="translate(3.15 3.55)"/>
        <path class="cls-7" d="M-2.91,79.48v-.6H465.15v.6Z" transform="translate(3.15 3.55)"/>
        <path class="cls-7" d="M-2.91,78.88v-.46H465.15v.46Z" transform="translate(3.15 3.55)"/>
        <path class="cls-27" d="M-2.91,78.42v-.3H465.15v.3Z" transform="translate(3.15 3.55)"/>
        <path class="cls-6" d="M-2.91,78.12V78H465.15v.16Z" transform="translate(3.15 3.55)"/>
        <path class="cls-26" d="M-2.91,78v-.3H465.15V78Z" transform="translate(3.15 3.55)"/>
        <path class="cls-7" d="M-2.91,77.66V77.2H465.15v.46Z" transform="translate(3.15 3.55)"/>
        <path class="cls-29" d="M-2.91,77.2v-.61H465.15v.61Z" transform="translate(3.15 3.55)"/>
        <path class="cls-10" d="M-2.91,76.59v-.45H465.15v.45Z" transform="translate(3.15 3.55)"/>
        <path class="cls-5" d="M-2.91,76.14V73.55H465.15v2.59Z" transform="translate(3.15 3.55)"/>
        <path class="cls-21" d="M-2.91,73.55V73.4H465.15v.15Z" transform="translate(3.15 3.55)"/>
        <path class="cls-6" d="M-2.91,73.4V69.14H465.15V73.4Z" transform="translate(3.15 3.55)"/>
        <path class="cls-39" d="M-2.91,69.14v-.77H465.15v.77Z" transform="translate(3.15 3.55)"/>
        <path class="cls-5" d="M-2.91,68.37v-.3H465.15v.3Z" transform="translate(3.15 3.55)"/>
        <path class="cls-6" d="M-2.91,68.07v-.15H465.15v.15Z" transform="translate(3.15 3.55)"/>
        <path class="cls-7" d="M-2.91,67.92V66.85H465.15v1.07Z" transform="translate(3.15 3.55)"/>
        <path class="cls-18" d="M-2.91,66.85v-.61H465.15v.61Z" transform="translate(3.15 3.55)"/>
        <path class="cls-28" d="M-2.91,66.24v-.76H465.15v.76Z" transform="translate(3.15 3.55)"/>
        <path class="cls-44" d="M-2.91,65.48v-.3H465.15v.3Z" transform="translate(3.15 3.55)"/>
        <path class="cls-43" d="M-2.91,65.18v-.76H465.15v.76Z" transform="translate(3.15 3.55)"/>
        <path class="cls-23" d="M-2.91,64.42v-.31H465.15v.31Z" transform="translate(3.15 3.55)"/>
        <path class="cls-19" d="M-2.91,64.11V64H465.15v.15Z" transform="translate(3.15 3.55)"/>
        <path class="cls-27" d="M-2.91,64V63.2H465.15V64Z" transform="translate(3.15 3.55)"/>
        <path class="cls-25" d="M-2.91,63.2v-.15H465.15v.15Z" transform="translate(3.15 3.55)"/>
        <path class="cls-7" d="M-2.91,63.05v-.31H465.15v.31Z" transform="translate(3.15 3.55)"/>
        <path class="cls-21" d="M-2.91,62.74v-.15H465.15v.15Z" transform="translate(3.15 3.55)"/>
        <path class="cls-25" d="M-2.91,62.59v-.91H465.15v.91Z" transform="translate(3.15 3.55)"/>
        <path class="cls-24" d="M-2.91,61.68v-.31H465.15v.31Z" transform="translate(3.15 3.55)"/>
        <path class="cls-7" d="M-2.91,61.37v-.61H465.15v.61Z" transform="translate(3.15 3.55)"/>
        <path class="cls-20" d="M-2.91,60.76v-.3H465.15v.3Z" transform="translate(3.15 3.55)"/>
        <path class="cls-7" d="M-2.91,60.46v-.91H465.15v.91Z" transform="translate(3.15 3.55)"/>
        <path class="cls-13" d="M-2.91,59.55V59.4H465.15v.15Z" transform="translate(3.15 3.55)"/>
        <path class="cls-24" d="M-2.91,59.4v-.61H465.15v.61Z" transform="translate(3.15 3.55)"/>
        <path class="cls-36" d="M-2.91,58.79V57.72H465.15v1.07Z" transform="translate(3.15 3.55)"/>
        <path class="cls-25" d="M-2.91,57.72v-.15H465.15v.15Z" transform="translate(3.15 3.55)"/>
        <path class="cls-41" d="M-2.91,57.57v-.76H465.15v.76Z" transform="translate(3.15 3.55)"/>
        <path class="cls-4" d="M-2.91,56.81v-.15H465.15v.15Z" transform="translate(3.15 3.55)"/>
        <path class="cls-7" d="M-2.91,56.66V55.59H465.15v1.07Z" transform="translate(3.15 3.55)"/>
        <path class="cls-12" d="M-2.91,55.59v-.15H465.15v.15Z" transform="translate(3.15 3.55)"/>
        <path class="cls-10" d="M-2.91,55.44v-.3H465.15v.3Z" transform="translate(3.15 3.55)"/>
        <path class="cls-40" d="M-2.91,55.14v-.31H465.15v.31Z" transform="translate(3.15 3.55)"/>
        <path class="cls-10" d="M-2.91,54.83v-.61H465.15v.61Z" transform="translate(3.15 3.55)"/>
        <path class="cls-6" d="M-2.91,54.22v-.3H465.15v.3Z" transform="translate(3.15 3.55)"/>
        <path class="cls-20" d="M-2.91,53.92V52.4H465.15v1.52Z" transform="translate(3.15 3.55)"/>
        <path class="cls-24" d="M-2.91,52.4v-.16H465.15v.16Z" transform="translate(3.15 3.55)"/>
        <path class="cls-24" d="M-2.91,52.24v-.3H465.15v.3Z" transform="translate(3.15 3.55)"/>
        <path class="cls-16" d="M-2.91,51.94v-.46H465.15v.46Z" transform="translate(3.15 3.55)"/>
        <path class="cls-36" d="M-2.91,51.48v-.3H465.15v.3Z" transform="translate(3.15 3.55)"/>
        <path class="cls-28" d="M-2.91,51.18v-.46H465.15v.46Z" transform="translate(3.15 3.55)"/>
        <path class="cls-23" d="M-2.91,50.72v-.3H465.15v.3Z" transform="translate(3.15 3.55)"/>
        <path class="cls-19" d="M-2.91,50.42v-.16H465.15v.16Z" transform="translate(3.15 3.55)"/>
        <path class="cls-18" d="M-2.91,50.26V50H465.15v.3Z" transform="translate(3.15 3.55)"/>
        <path class="cls-12" d="M-2.91,50v-.3H465.15V50Z" transform="translate(3.15 3.55)"/>
        <path class="cls-16" d="M-2.91,49.66v-.31H465.15v.31Z" transform="translate(3.15 3.55)"/>
        <path class="cls-23" d="M-2.91,49.35v-.3H465.15v.3Z" transform="translate(3.15 3.55)"/>
        <path class="cls-20" d="M-2.91,49.05v-.31H465.15v.31Z" transform="translate(3.15 3.55)"/>
        <path class="cls-17" d="M-2.91,48.74v-.45H465.15v.45Z" transform="translate(3.15 3.55)"/>
        <path class="cls-8" d="M-2.91,48.29v-.61H465.15v.61Z" transform="translate(3.15 3.55)"/>
        <path class="cls-43" d="M-2.91,47.68V45.24H465.15v2.44Z" transform="translate(3.15 3.55)"/>
        <path class="cls-4" d="M-2.91,45.24v-.76H465.15v.76Z" transform="translate(3.15 3.55)"/>
        <path class="cls-15" d="M-2.91,44.48v-.3H465.15v.3Z" transform="translate(3.15 3.55)"/>
        <path class="cls-30" d="M-2.91,44.18V42.81H465.15v1.37Z" transform="translate(3.15 3.55)"/>
        <path class="cls-25" d="M-2.91,42.81v-.92H465.15v.92Z" transform="translate(3.15 3.55)"/>
        <path class="cls-25" d="M-2.91,41.89V39.46H465.15v2.43Z" transform="translate(3.15 3.55)"/>
        <path class="cls-19" d="M-2.91,39.46v-.15H465.15v.15Z" transform="translate(3.15 3.55)"/>
        <path class="cls-13" d="M-2.91,39.31V38.24H465.15v1.07Z" transform="translate(3.15 3.55)"/>
        <path class="cls-23" d="M-2.91,38.24v-.46H465.15v.46Z" transform="translate(3.15 3.55)"/>
        <path class="cls-22" d="M-2.91,37.78v-.91H465.15v.91Z" transform="translate(3.15 3.55)"/>
        <path class="cls-24" d="M-2.91,36.87v-.61H465.15v.61Z" transform="translate(3.15 3.55)"/>
        <path class="cls-18" d="M-2.91,36.26v-.61H465.15v.61Z" transform="translate(3.15 3.55)"/>
        <path class="cls-24" d="M-2.91,35.65v-.3H465.15v.3Z" transform="translate(3.15 3.55)"/>
        <path class="cls-14" d="M-2.91,35.35V35.2H465.15v.15Z" transform="translate(3.15 3.55)"/>
        <path class="cls-26" d="M-2.91,35.2V32.15H465.15V35.2Z" transform="translate(3.15 3.55)"/>
        <path class="cls-21" d="M-2.91,32.15v-.61H465.15v.61Z" transform="translate(3.15 3.55)"/>
        <path class="cls-32" d="M-2.91,31.54V29.72H465.15v1.82Z" transform="translate(3.15 3.55)"/>
        <path class="cls-23" d="M-2.91,29.72v-.15H465.15v.15Z" transform="translate(3.15 3.55)"/>
        <path class="cls-22" d="M-2.91,29.57v-.31H465.15v.31Z" transform="translate(3.15 3.55)"/>
        <path class="cls-43" d="M-2.91,29.26v-.45H465.15v.45Z" transform="translate(3.15 3.55)"/>
        <path class="cls-14" d="M-2.91,28.81V28.5H465.15v.31Z" transform="translate(3.15 3.55)"/>
        <path class="cls-39" d="M-2.91,28.5v-.15H465.15v.15Z" transform="translate(3.15 3.55)"/>
        <path class="cls-10" d="M-2.91,28.35v-.91H465.15v.91Z" transform="translate(3.15 3.55)"/>
        <path class="cls-14" d="M-2.91,27.44v-3.2H465.15v3.2Z" transform="translate(3.15 3.55)"/>
        <path class="cls-19" d="M-2.91,24.24V23H465.15v1.22Z" transform="translate(3.15 3.55)"/>
        <path class="cls-29" d="M-2.91,23v-.61H465.15V23Z" transform="translate(3.15 3.55)"/>
        <path class="cls-7" d="M-2.91,22.41V21.05H465.15v1.36Z" transform="translate(3.15 3.55)"/>
        <path class="cls-24" d="M-2.91,21.05v-.16H465.15v.16Z" transform="translate(3.15 3.55)"/>
        <path class="cls-25" d="M-2.91,20.89V19.22H465.15v1.67Z" transform="translate(3.15 3.55)"/>
        <path class="cls-22" d="M-2.91,19.22v-.31H465.15v.31Z" transform="translate(3.15 3.55)"/>
        <path class="cls-30" d="M-2.91,18.91v-.45H465.15v.45Z" transform="translate(3.15 3.55)"/>
        <path class="cls-7" d="M-2.91,18.46V17.7H465.15v.76Z" transform="translate(3.15 3.55)"/>
        <path class="cls-7" d="M-2.91,17.7v-.16H465.15v.16Z" transform="translate(3.15 3.55)"/>
        <path class="cls-4" d="M-2.91,17.54V16H465.15v1.52Z" transform="translate(3.15 3.55)"/>
        <path class="cls-6" d="M-2.91,16V14.35H465.15V16Z" transform="translate(3.15 3.55)"/>
        <path class="cls-14" d="M-2.91,14.35V13.28H465.15v1.07Z" transform="translate(3.15 3.55)"/>
        <path class="cls-19" d="M-2.91,13.28v-.45H465.15v.45Z" transform="translate(3.15 3.55)"/>
        <path class="cls-7" d="M-2.91,12.83V11.15H465.15v1.68Z" transform="translate(3.15 3.55)"/>
        <path class="cls-6" d="M-2.91,11.15V11H465.15v.15Z" transform="translate(3.15 3.55)"/>
        <path class="cls-28" d="M-2.91,11v-.76H465.15V11Z" transform="translate(3.15 3.55)"/>
        <path class="cls-14" d="M-2.91,10.24v-.3H465.15v.3Z" transform="translate(3.15 3.55)"/>
        <path class="cls-38" d="M-2.91,9.94V9.48H465.15v.46Z" transform="translate(3.15 3.55)"/>
        <path class="cls-7" d="M-2.91,9.48V9.17H465.15v.31Z" transform="translate(3.15 3.55)"/>
        <path class="cls-16" d="M-2.91,9.17v-.3H465.15v.3Z" transform="translate(3.15 3.55)"/>
        <path class="cls-19" d="M-2.91,8.87V8.72H465.15v.15Z" transform="translate(3.15 3.55)"/>
        <path class="cls-13" d="M-2.91,8.72V8.11H465.15v.61Z" transform="translate(3.15 3.55)"/>
        <path class="cls-12" d="M-2.91,8.11V2.94H465.15V8.11Z" transform="translate(3.15 3.55)"/>
        <path class="cls-25" d="M-2.91,2.94V2.78H465.15v.16Z" transform="translate(3.15 3.55)"/>
        <path class="cls-29" d="M-2.91,2.78V2H465.15v.76Z" transform="translate(3.15 3.55)"/>
        <path class="cls-7" d="M-2.91,2v-.3H465.15V2Z" transform="translate(3.15 3.55)"/>
        <path class="cls-13" d="M-2.91,1.72v-3.2H465.15v3.2Z" transform="translate(3.15 3.55)"/>
        <path class="cls-21" d="M-2.91-1.48v-.45H465.15v.45Z" transform="translate(3.15 3.55)"/>
        <path class="cls-19" d="M-2.91-1.93C-4.27-4.13.38-3.46,2.64-3.46h456.5c.74,0,2.85,0,3.7,0,2.52.16,2.6,0,2.31,1.53Z" transform="translate(3.15 3.55)"/>
        <rect class="cls-54" x="1.57" y="3.03" width="466.81" height="464.63"/>
        <ellipse class="cls-55" cx="193.48" cy="414.48" rx="35.67" ry="2.91"/>
        <rect class="cls-56" x="163.99" y="356.97" width="59.33" height="58.24"/>
        <path class="cls-57" d="M221.26,405.83c0,3.34-14.09,6.05-31.48,6.05s-31.49-2.71-31.49-6.05,14.1-6.05,31.49-6.05S221.26,402.49,221.26,405.83Z" transform="translate(3.15 3.55)"/>
        <rect x="167.82" y="361.88" width="51.87" height="48.23"/>
        <polygon class="cls-58" points="202.87 368.09 218.88 368.07 218.33 363.07 203.05 363.07 184.34 363.07 169.05 363.07 168.5 368.07 184.51 368.09 184.51 368.12 193.69 368.11 202.87 368.12 202.87 368.09"/>
        <polygon class="cls-59" points="202.87 368.09 218.88 368.07 218.33 363.07 203.05 363.07 184.34 363.07 169.05 363.07 168.5 368.07 184.51 368.09 184.51 368.12 193.69 368.11 202.87 368.12 202.87 368.09"/>
        <polygon class="cls-60" points="199.95 368.07 187.43 368.07 168.5 368.07 169.73 410.66 187.43 410.66 199.95 410.66 217.66 410.66 218.88 368.07 199.95 368.07"/>
        <polygon class="cls-61" points="199.95 368.07 187.43 368.07 168.5 368.07 169.73 410.66 187.43 410.66 199.95 410.66 217.66 410.66 218.88 368.07 199.95 368.07"/>
        <path class="cls-62" d="M212.92,367.25l-1.07,37.13H169.23l-1.07-37.13h44.76Zm2.8-2.73H165.35l1.22,42.59H214.5l1.22-42.59Z" transform="translate(3.15 3.55)"/>
        <path class="cls-63" d="M196.8,364.52H165.35l1.22,42.59H214.5l1.22-42.59Zm0,42.18H167l-1.2-41.77H215.3l-1.2,41.77Z" transform="translate(3.15 3.55)"/>
        <path class="cls-64" d="M167,389.06l.63,16.92,45.5.12.73-19.2c-7.59,1.8-15.24,6.74-23.75,6C182.56,392.2,174.4,389.57,167,389.06Z" transform="translate(3.15 3.55)"/>
        <path class="cls-65" d="M191.05,381.81h-1.54q-.06-5-.1-10.11H191Q191,376.82,191.05,381.81Z" transform="translate(3.15 3.55)"/>
        <path class="cls-65" d="M190.32,387.27a5,5,0,0,0-5.17,4.94,5.14,5.14,0,0,0,5.25,4.86,5,5,0,0,0,5.18-4.86A5.12,5.12,0,0,0,190.32,387.27Zm.08,8.72a4,4,0,0,1-4.09-3.78,3.9,3.9,0,0,1,4-3.84,4,4,0,0,1,4.09,3.84A3.9,3.9,0,0,1,190.4,396Z" transform="translate(3.15 3.55)"/>
        <path class="cls-66" d="M304.62,410.93c0,1.61-16,2.91-35.67,2.91s-35.68-1.3-35.68-2.91S249.25,408,269,408,304.62,409.32,304.62,410.93Z" transform="translate(3.15 3.55)"/>
        <rect class="cls-67" x="242.62" y="356.97" width="59.33" height="58.24"/>
        <path class="cls-68" d="M299.89,405.83c0,3.34-14.1,6.05-31.49,6.05s-31.49-2.71-31.49-6.05,14.1-6.05,31.49-6.05S299.89,402.49,299.89,405.83Z" transform="translate(3.15 3.55)"/>
        <rect class="cls-69" x="246.44" y="362.43" width="51.87" height="48.23"/>
        <rect class="cls-70" x="246.44" y="362.43" width="51.87" height="48.23"/>
        <polygon class="cls-71" points="281.5 404.45 297.5 404.47 296.95 409.48 281.67 409.48 262.96 409.48 247.68 409.48 247.13 404.47 263.14 404.45 263.14 404.43 272.32 404.44 281.49 404.43 281.5 404.45"/>
        <polygon class="cls-72" points="278.58 404.47 266.06 404.47 247.13 404.47 248.35 361.88 266.06 361.88 278.58 361.88 296.28 361.88 297.5 404.47 278.58 404.47"/>
        <polygon class="cls-73" points="278.58 404.47 266.06 404.47 247.13 404.47 248.35 361.88 266.06 361.88 278.58 361.88 296.28 361.88 297.5 404.47 278.58 404.47"/>
        <polygon class="cls-74" points="278.58 404.47 266.06 404.47 247.13 404.47 248.35 361.88 266.06 361.88 278.58 361.88 296.28 361.88 297.5 404.47 278.58 404.47"/>
        <path class="cls-75" d="M291.54,398.19H246.78l1.07-37.13h42.62l1.07,37.13Zm2.81,2.73-1.23-42.59H245.2L244,400.92h50.38Z" transform="translate(3.15 3.55)"/>
        <path class="cls-76" d="M294.35,400.92l-1.23-42.59H245.2L244,400.92h50.38Zm-1.62-42.18,1.2,41.77H244.4l1.2-41.77h47.13Z" transform="translate(3.15 3.55)"/>
        <path class="cls-65" d="M270.15,376.46h-1.54q-.06-5-.1-10.12h1.57Q270.11,371.46,270.15,376.46Z" transform="translate(3.15 3.55)"/>
        <path class="cls-65" d="M269.42,381.91a5,5,0,0,0-5.17,4.94,5.13,5.13,0,0,0,5.25,4.86,5,5,0,0,0,5.18-4.86A5.12,5.12,0,0,0,269.42,381.91Zm.08,8.73a4,4,0,0,1-4.09-3.79,3.89,3.89,0,0,1,4-3.83,4,4,0,0,1,4.09,3.83A3.91,3.91,0,0,1,269.5,390.64Z" transform="translate(3.15 3.55)"/>
        <path class="cls-77" d="M245.65,376.37l.64-16.91,45.5-.13.73,19.2c-7.6-1.79-15.25-6.74-23.76-6C261.19,373.23,253,375.86,245.65,376.37Z" transform="translate(3.15 3.55)"/>
        <circle class="cls-78" cx="265.95" cy="384.49" r="110.8"/>
        <path class="cls-79" d="M308.84,387.23A38.2,38.2,0,1,1,270.65,349,38.19,38.19,0,0,1,308.84,387.23Z" transform="translate(3.15 3.55)"/>
        <path class="cls-80" d="M319.44,392.78c0,14-23,25.25-51.4,25.25s-51.41-11.3-51.41-25.25,23-25.24,51.41-25.24S319.44,378.84,319.44,392.78Z" transform="translate(3.15 3.55)"/>
      </g>
    </g>
  </g>
</svg>
