<svg id="Layer_1" data-name="Layer 1" xmlns="http://www.w3.org/2000/svg" xmlns:xlink="http://www.w3.org/1999/xlink" viewBox="0 0 415.16 199.66">
  <defs>
    <style>
      .cls-1 {
        fill: #4a4a4a;
      }

      .cls-2 {
        fill: url(#linear-gradient);
      }

      .cls-3 {
        fill: url(#linear-gradient-2);
      }

      .cls-4 {
        fill: url(#linear-gradient-3);
      }

      .cls-5 {
        fill: url(#linear-gradient-4);
      }

      .cls-6 {
        fill: url(#linear-gradient-5);
      }

      .cls-7 {
        fill: url(#linear-gradient-6);
      }

      .cls-8 {
        fill: url(#linear-gradient-7);
      }

      .cls-9 {
        fill: url(#linear-gradient-8);
      }

      .cls-10 {
        fill: url(#linear-gradient-9);
      }

      .cls-11 {
        fill: url(#linear-gradient-10);
      }

      .cls-12 {
        fill: url(#linear-gradient-11);
      }

      .cls-13 {
        fill: url(#linear-gradient-12);
      }

      .cls-14 {
        fill: url(#linear-gradient-13);
      }

      .cls-15 {
        fill: url(#linear-gradient-14);
      }

      .cls-16 {
        fill: url(#linear-gradient-15);
      }

      .cls-17 {
        fill: url(#linear-gradient-16);
      }

      .cls-18 {
        fill: url(#linear-gradient-17);
      }

      .cls-19 {
        fill: url(#linear-gradient-18);
      }

      .cls-20 {
        fill: url(#linear-gradient-19);
      }

      .cls-21 {
        fill: url(#linear-gradient-20);
      }

      .cls-22 {
        fill: url(#linear-gradient-21);
      }

      .cls-23 {
        fill: url(#linear-gradient-22);
      }

      .cls-24 {
        fill: url(#linear-gradient-23);
      }

      .cls-25 {
        fill: url(#linear-gradient-24);
      }

      .cls-26 {
        fill: url(#linear-gradient-25);
      }

      .cls-27 {
        fill: url(#linear-gradient-26);
      }

      .cls-28 {
        fill: url(#linear-gradient-27);
      }

      .cls-29 {
        fill: #010101;
      }

      .cls-30 {
        fill: url(#linear-gradient-28);
      }

      .cls-31 {
        fill: url(#linear-gradient-29);
      }

      .cls-32 {
        fill: url(#linear-gradient-30);
      }
    </style>
    <linearGradient id="linear-gradient" x1="-392.95" y1="-103.25" x2="-3.87" y2="-103.25" gradientTransform="translate(65.86 71.26) rotate(-158.09)" gradientUnits="userSpaceOnUse">
      <stop offset="0" stop-color="#363636"/>
      <stop offset="1" stop-color="#010101"/>
    </linearGradient>
    <linearGradient id="linear-gradient-2" x1="-452.5" y1="-119.35" x2="-34.87" y2="-94.09" gradientTransform="matrix(-0.78, -0.37, 0.37, -0.78, 60.18, 67)" gradientUnits="userSpaceOnUse">
      <stop offset="0" stop-color="#343434"/>
      <stop offset="1" stop-color="#010101"/>
    </linearGradient>
    <linearGradient id="linear-gradient-3" x1="-527.53" y1="-129.91" x2="-82.21" y2="-75.84" gradientTransform="translate(54.5 62.73) rotate(-150.03) scale(0.74)" gradientUnits="userSpaceOnUse">
      <stop offset="0" stop-color="#323232"/>
      <stop offset="1" stop-color="#010101"/>
    </linearGradient>
    <linearGradient id="linear-gradient-4" x1="-620.76" y1="-123.78" x2="-155.07" y2="-38.44" gradientTransform="matrix(-0.5, -0.37, 0.37, -0.5, 48.82, 58.47)" gradientUnits="userSpaceOnUse">
      <stop offset="0" stop-color="#303030"/>
      <stop offset="1" stop-color="#010101"/>
    </linearGradient>
    <linearGradient id="linear-gradient-5" x1="-726.92" y1="-74.79" x2="-263.05" y2="39.54" gradientTransform="translate(43.14 54.21) rotate(-134.05) scale(0.51)" gradientUnits="userSpaceOnUse">
      <stop offset="0" stop-color="#2e2e2e"/>
      <stop offset="1" stop-color="#010101"/>
    </linearGradient>
    <linearGradient id="linear-gradient-6" x1="-816.88" y1="63.56" x2="-386.87" y2="197.56" gradientTransform="translate(37.46 49.94) rotate(-120.04) scale(0.42)" gradientUnits="userSpaceOnUse">
      <stop offset="0" stop-color="#2b2b2c"/>
      <stop offset="1" stop-color="#010101"/>
    </linearGradient>
    <linearGradient id="linear-gradient-7" x1="-842.6" y1="295.03" x2="-381.3" y2="469.98" gradientTransform="translate(31.78 45.68) rotate(-100.51) scale(0.37)" gradientUnits="userSpaceOnUse">
      <stop offset="0" stop-color="#29292a"/>
      <stop offset="1" stop-color="#010101"/>
    </linearGradient>
    <linearGradient id="linear-gradient-8" x1="-738.72" y1="463.8" x2="-118.75" y2="742.83" gradientTransform="translate(26.1 41.42) rotate(-78.08) scale(0.37)" gradientUnits="userSpaceOnUse">
      <stop offset="0" stop-color="#272727"/>
      <stop offset="1" stop-color="#010101"/>
    </linearGradient>
    <linearGradient id="linear-gradient-9" x1="-509.86" y1="465.7" x2="150.71" y2="812.4" gradientTransform="translate(20.42 37.16) rotate(-58.55) scale(0.42)" gradientUnits="userSpaceOnUse">
      <stop offset="0" stop-color="#252525"/>
      <stop offset="1" stop-color="#010101"/>
    </linearGradient>
    <linearGradient id="linear-gradient-10" x1="-301.54" y1="387.11" x2="273.05" y2="734.46" gradientTransform="translate(9.24 -108.44) rotate(-44.54) scale(0.51)" gradientUnits="userSpaceOnUse">
      <stop offset="0" stop-color="#232323"/>
      <stop offset="1" stop-color="#010101"/>
    </linearGradient>
    <linearGradient id="linear-gradient-11" x1="-163.67" y1="307.33" x2="299.78" y2="627.23" gradientTransform="matrix(0.51, -0.36, 0.36, 0.51, 3.56, -112.71)" gradientUnits="userSpaceOnUse">
      <stop offset="0" stop-color="#212121"/>
      <stop offset="1" stop-color="#010101"/>
    </linearGradient>
    <linearGradient id="linear-gradient-12" x1="-78.73" y1="246.01" x2="288.66" y2="533.84" gradientTransform="matrix(0.65, -0.35, 0.35, 0.65, -2.12, -116.97)" gradientUnits="userSpaceOnUse">
      <stop offset="0" stop-color="#1f1f1f"/>
      <stop offset="1" stop-color="#010101"/>
    </linearGradient>
    <linearGradient id="linear-gradient-13" x1="-25.67" y1="201.57" x2="266.09" y2="460.05" gradientTransform="translate(-7.8 -121.23) rotate(-23.92) scale(0.87)" gradientUnits="userSpaceOnUse">
      <stop offset="0" stop-color="#1d1d1d"/>
      <stop offset="1" stop-color="#010101"/>
    </linearGradient>
    <linearGradient id="linear-gradient-14" x1="8.7" y1="169.39" x2="241.88" y2="402.57" gradientTransform="translate(-13.48 -125.5) rotate(-20.49)" gradientUnits="userSpaceOnUse">
      <stop offset="0" stop-color="#1b1b1b"/>
      <stop offset="1" stop-color="#010101"/>
    </linearGradient>
    <linearGradient id="linear-gradient-15" x1="-6.3" y1="197.63" x2="267.15" y2="471.09" gradientTransform="translate(-1.37 18.81) rotate(-22.32) scale(0.85)" gradientUnits="userSpaceOnUse">
      <stop offset="0" stop-color="#1e1e1e"/>
      <stop offset="1" stop-color="#010101"/>
    </linearGradient>
    <linearGradient id="linear-gradient-16" x1="-33.28" y1="237.81" x2="298" y2="569.09" gradientTransform="translate(5.24 21.78) rotate(-24.91) scale(0.7)" gradientUnits="userSpaceOnUse">
      <stop offset="0" stop-color="#202020"/>
      <stop offset="1" stop-color="#010101"/>
    </linearGradient>
    <linearGradient id="linear-gradient-17" x1="-86.72" y1="298.46" x2="333.13" y2="718.3" gradientTransform="translate(6.35 -116.59) rotate(-28.86) scale(0.56)" xlink:href="#linear-gradient-10"/>
    <linearGradient id="linear-gradient-18" x1="-207.86" y1="396.08" x2="358.59" y2="962.52" gradientTransform="matrix(0.34, -0.24, 0.24, 0.34, 12.96, -113.62)" gradientUnits="userSpaceOnUse">
      <stop offset="0" stop-color="#252526"/>
      <stop offset="1" stop-color="#010101"/>
    </linearGradient>
    <linearGradient id="linear-gradient-19" x1="-533.18" y1="550.77" x2="286.53" y2="1370.48" gradientTransform="translate(19.58 -110.65) rotate(-48.45) scale(0.29)" gradientUnits="userSpaceOnUse">
      <stop offset="0" stop-color="#282828"/>
      <stop offset="1" stop-color="#010101"/>
    </linearGradient>
    <linearGradient id="linear-gradient-20" x1="-1382.21" y1="597.47" x2="-313.09" y2="1666.59" gradientTransform="translate(26.19 -107.68) rotate(-77.27) scale(0.19)" gradientUnits="userSpaceOnUse">
      <stop offset="0" stop-color="#2a2b2b"/>
      <stop offset="1" stop-color="#010101"/>
    </linearGradient>
    <linearGradient id="linear-gradient-21" x1="-1685.53" y1="-139.47" x2="-1068.81" y2="477.25" gradientTransform="translate(32.8 -104.72) rotate(-123.08) scale(0.19)" gradientUnits="userSpaceOnUse">
      <stop offset="0" stop-color="#2d2d2e"/>
      <stop offset="1" stop-color="#010101"/>
    </linearGradient>
    <linearGradient id="linear-gradient-22" x1="-1061.66" y1="-565.78" x2="-625.6" y2="-129.71" gradientTransform="translate(39.41 -101.75) rotate(-151.9) scale(0.29)" xlink:href="#linear-gradient-4"/>
    <linearGradient id="linear-gradient-23" x1="-676.76" y1="-540.47" x2="-319.88" y2="-183.58" gradientTransform="matrix(-0.4, -0.11, 0.11, -0.4, 51.52, 42.56)" gradientUnits="userSpaceOnUse">
      <stop offset="0" stop-color="#323333"/>
      <stop offset="1" stop-color="#010101"/>
    </linearGradient>
    <linearGradient id="linear-gradient-24" x1="-472.33" y1="-454.07" x2="-182.15" y2="-163.89" gradientTransform="matrix(-0.55, -0.08, 0.08, -0.55, 58.14, 45.53)" gradientUnits="userSpaceOnUse">
      <stop offset="0" stop-color="#353636"/>
      <stop offset="1" stop-color="#010101"/>
    </linearGradient>
    <linearGradient id="linear-gradient-25" x1="-353.29" y1="-379.63" x2="-112.55" y2="-138.89" gradientTransform="translate(64.75 48.5) rotate(-175.44) scale(0.7)" gradientUnits="userSpaceOnUse">
      <stop offset="0" stop-color="#383838"/>
      <stop offset="1" stop-color="#010101"/>
    </linearGradient>
    <linearGradient id="linear-gradient-26" x1="-277.22" y1="-321.95" x2="-72.84" y2="-117.58" gradientTransform="translate(71.36 51.47) rotate(-178.03) scale(0.85)" gradientUnits="userSpaceOnUse">
      <stop offset="0" stop-color="#3b3b3b"/>
      <stop offset="1" stop-color="#010101"/>
    </linearGradient>
    <linearGradient id="linear-gradient-27" x1="-225" y1="-277.41" x2="-47.97" y2="-100.37" gradientTransform="translate(77.97 54.43) rotate(-179.86)" gradientUnits="userSpaceOnUse">
      <stop offset="0" stop-color="#3d3e3e"/>
      <stop offset="1" stop-color="#010101"/>
    </linearGradient>
    <linearGradient id="linear-gradient-28" x1="312.35" y1="256.43" x2="281.83" y2="225.91" gradientUnits="userSpaceOnUse">
      <stop offset="0" stop-color="#fff"/>
      <stop offset="0.29" stop-color="#fcfcfc"/>
      <stop offset="0.52" stop-color="#f2f2f2"/>
      <stop offset="0.74" stop-color="#e0e0e0"/>
      <stop offset="0.95" stop-color="#c8c8c8"/>
      <stop offset="1" stop-color="#c1c1c1"/>
    </linearGradient>
    <linearGradient id="linear-gradient-29" x1="338.86" y1="110.57" x2="317.39" y2="89.1" xlink:href="#linear-gradient-28"/>
    <linearGradient id="linear-gradient-30" x1="354.13" y1="110.57" x2="332.66" y2="89.1" xlink:href="#linear-gradient-28"/>
  </defs>
  <title>bigune</title>
  <path class="cls-1" d="M78.57,165.13c87.32-35.72,218.33-30.64,292.62,11.35s63.72,105-23.6,140.72S129.27,347.85,55,305.86-8.74,200.86,78.57,165.13Z" transform="translate(-5.5 -141.34)"/>
  <g>
    <path class="cls-2" d="M20.44,204.16c42.42-50.72,162.31-75.3,267.78-54.9S444.8,227.32,402.38,278.05,240.06,353.35,134.59,333-22,254.88,20.44,204.16Z" transform="translate(-5.5 -141.34)"/>
    <path class="cls-3" d="M400.44,272.92C363.9,323.11,249.67,349.56,145.3,332S-14,259.47,22.48,209.28s150.78-76.64,255.14-59.07S437,222.72,400.44,272.92Z" transform="translate(-5.5 -141.34)"/>
    <path class="cls-4" d="M398.5,267.79C367.85,317.46,259.28,345.76,156,331S-6.12,264.07,24.53,214.4s139.23-78,242.5-63.23S429.16,218.13,398.5,267.79Z" transform="translate(-5.5 -141.34)"/>
    <path class="cls-5" d="M396.57,262.66C371.8,311.8,268.89,342,166.72,330.06S1.81,268.66,26.58,219.52s127.68-79.31,229.85-67.4S421.34,213.53,396.57,262.66Z" transform="translate(-5.5 -141.34)"/>
    <path class="cls-6" d="M394.63,257.53c-18.89,48.61-116.13,80.65-217.19,71.57S9.75,273.25,28.63,224.64,144.76,144,245.83,153.08,413.52,208.93,394.63,257.53Z" transform="translate(-5.5 -141.34)"/>
    <path class="cls-7" d="M392.69,252.41c-13,48.07-104.58,82-204.54,75.73S17.68,277.84,30.68,229.76s104.58-82,204.55-75.73S405.69,204.33,392.69,252.41Z" transform="translate(-5.5 -141.34)"/>
    <path class="cls-8" d="M390.76,247.28c-7.12,47.55-93,83.32-191.9,79.89S25.61,282.43,32.73,234.88s93-83.31,191.9-79.89S397.87,199.73,390.76,247.28Z" transform="translate(-5.5 -141.34)"/>
    <path class="cls-9" d="M388.82,242.15c-1.23,47-81.49,84.65-179.25,84.06S33.55,287,34.78,240,116.27,155.35,214,155.94,390.05,195.13,388.82,242.15Z" transform="translate(-5.5 -141.34)"/>
    <path class="cls-10" d="M386.88,237c4.65,46.49-69.94,86-166.6,88.23S41.48,291.61,36.83,245.12s69.94-86,166.6-88.22S382.23,190.53,386.88,237Z" transform="translate(-5.5 -141.34)"/>
    <ellipse class="cls-11" cx="206.41" cy="99.73" rx="174.08" ry="83.72"/>
    <ellipse class="cls-12" cx="206.47" cy="99.73" rx="173.61" ry="83.49"/>
    <ellipse class="cls-13" cx="206.52" cy="99.73" rx="173.8" ry="83.59"/>
    <ellipse class="cls-14" cx="206.58" cy="99.72" rx="174.68" ry="84.01"/>
    <ellipse class="cls-15" cx="206.63" cy="99.72" rx="176.21" ry="84.75"/>
    <path class="cls-16" d="M47.56,268.51C16.12,224.79,64.33,177.09,155.24,162S345.32,170,376.76,213.76,360,305.18,269.08,320.3,79,312.23,47.56,268.51Z" transform="translate(-5.5 -141.34)"/>
    <path class="cls-17" d="M48,266.29c-28.8-43.59,21.34-90.16,112-104s187.48,10.26,216.28,53.86-21.34,90.16-112,104S76.84,309.89,48,266.29Z" transform="translate(-5.5 -141.34)"/>
    <ellipse class="cls-18" cx="206.7" cy="99.96" rx="170.39" ry="81.95"/>
    <ellipse class="cls-19" cx="206.73" cy="100.04" rx="168.68" ry="81.12"/>
    <ellipse class="cls-20" cx="206.75" cy="100.12" rx="167.09" ry="80.36"/>
    <ellipse class="cls-21" cx="206.77" cy="100.2" rx="165.62" ry="79.65"/>
    <ellipse class="cls-22" cx="206.8" cy="100.28" rx="164.28" ry="79.01"/>
    <ellipse class="cls-23" cx="206.82" cy="100.36" rx="163.07" ry="78.42"/>
    <path class="cls-24" d="M51.44,250.78C41.1,208,104.76,169.37,193.63,164.4S362.91,190,373.25,232.78s-53.33,81.42-142.19,86.39S61.77,293.52,51.44,250.78Z" transform="translate(-5.5 -141.34)"/>
    <path class="cls-25" d="M51.92,248.56c-7.7-42.61,57.9-80.16,146.51-83.86s166.68,27.84,174.38,70.46S314.91,315.32,226.3,319,59.62,291.18,51.92,248.56Z" transform="translate(-5.5 -141.34)"/>
    <path class="cls-26" d="M52.41,246.35c-5.06-42.49,62.46-78.91,150.82-81.35s164.08,30,169.14,72.54-62.46,78.91-150.82,81.34S57.47,288.84,52.41,246.35Z" transform="translate(-5.5 -141.34)"/>
    <path class="cls-27" d="M52.89,244.13c-2.42-42.37,67-77.66,155.14-78.82s161.48,32.23,163.9,74.61-67,77.66-155.13,78.82S55.31,286.5,52.89,244.13Z" transform="translate(-5.5 -141.34)"/>
    <path class="cls-28" d="M53.38,241.92c.21-42.25,71.6-76.42,159.45-76.31S371.71,200,371.5,242.29s-71.61,76.42-159.45,76.31S53.16,284.16,53.38,241.92Z" transform="translate(-5.5 -141.34)"/>
  </g>
  <g>
    <path class="cls-29" d="M286.07,241.86V218.54c0-1.48,1.05-2.09,2.33-1.34l15.54,9,4.66,2.7,15.53,9a1.43,1.43,0,0,1,0,2.7l-15.53,9-4.66,2.7-15.54,9c-1.28.74-2.33.14-2.33-1.34Z" transform="translate(-5.5 -141.34)"/>
    <g>
      <rect class="cls-29" x="321.43" y="79.33" width="9.4" height="37" rx="2.94" ry="2.94"/>
      <rect class="cls-29" x="336.69" y="79.33" width="9.4" height="37" rx="2.94" ry="2.94"/>
    </g>
  </g>
  <g>
    <path class="cls-30" d="M288.07,243.86V220.54c0-1.48,1.05-2.09,2.33-1.34l15.54,9,4.66,2.7,15.53,9a1.43,1.43,0,0,1,0,2.7l-15.53,9-4.66,2.7-15.54,9c-1.28.74-2.33.14-2.33-1.34Z" transform="translate(-5.5 -141.34)"/>
    <g>
      <rect class="cls-31" x="323.43" y="81.33" width="9.4" height="37" rx="2.94" ry="2.94"/>
      <rect class="cls-32" x="338.69" y="81.33" width="9.4" height="37" rx="2.94" ry="2.94"/>
    </g>
  </g>
</svg>
